SplineFontDB: 3.0
FontName: Untitled1
FullName: Untitled1
FamilyName: Untitled1
Weight: Regular
Copyright: Copyright (c) 2018, Alireza,,,
UComments: "2018-12-1: Created with FontForge (http://fontforge.org)"
Version: 001.000
ItalicAngle: 0
UnderlinePosition: -50
UnderlineWidth: 25
Ascent: 300
Descent: 200
InvalidEm: 0
LayerCount: 4
Layer: 0 0 "Back" 1
Layer: 1 0 "Fore" 0
Layer: 2 0 "Back 2" 1
Layer: 3 0 "With Intersection" 1
XUID: [1021 621 -37808773 11451075]
OS2Version: 0
OS2_WeightWidthSlopeOnly: 0
OS2_UseTypoMetrics: 1
CreationTime: 1543651486
ModificationTime: 1546764611
OS2TypoAscent: 0
OS2TypoAOffset: 1
OS2TypoDescent: 0
OS2TypoDOffset: 1
OS2TypoLinegap: 0
OS2WinAscent: 0
OS2WinAOffset: 1
OS2WinDescent: 0
OS2WinDOffset: 1
HheadAscent: 0
HheadAOffset: 1
HheadDescent: 0
HheadDOffset: 1
OS2Vendor: 'PfEd'
MarkAttachClasses: 1
DEI: 91125
Encoding: ISO8859-1
UnicodeInterp: none
NameList: AGL For New Fonts
DisplaySize: -48
AntiAlias: 1
FitToEm: 0
WinInfo: 0 31 11
BeginPrivate: 0
EndPrivate
Grid
-236.5 550 m 0
 -236.5 -450 l 1024
-500 0 m 4
 1000 0 l 1028
  Spiro
    -500 0 {
    1000 0 o
    0 0 z
  EndSpiro
  Named: "Base Line"
-332 -310 m 1
 366 582 l 1025
  Spiro
    -332 -310 {
    366 582 v
    0 0 z
  EndSpiro
750 -350 m 1
 1448 542 l 1025
  Spiro
    750 -350 {
    1448 542 v
    0 0 z
  EndSpiro
-84 -330 m 1
 614 562 l 1025
  Spiro
    -84 -330 {
    614 562 v
    0 0 z
  EndSpiro
196 -338 m 1
 894 554 l 1025
  Spiro
    196 -338 {
    894 554 v
    0 0 z
  EndSpiro
460 -332 m 1
 1158 560 l 1025
  Spiro
    460 -332 {
    1158 560 v
    0 0 z
  EndSpiro
-500 200 m 0
 1000 200 l 1024
  Spiro
    -500 200 {
    1000 200 o
    0 0 z
  EndSpiro
-500 100 m 0
 1000 100 l 1024
  Spiro
    -500 100 {
    1000 100 o
    0 0 z
  EndSpiro
-500 -100 m 0
 1000 -100 l 1024
  Spiro
    -500 -100 {
    1000 -100 o
    0 0 z
  EndSpiro
EndSplineSet
BeginChars: 256 26

StartChar: O
Encoding: 79 79 0
Width: 350
VWidth: 0
InSpiro: 1
Flags: HW
LayerCount: 4
Fore
SplineSet
270 287 m 1
 248.468575678 299.139536633 223.751103183 305.549572355 199.033414267 305.469337279 c 0
 174.315725352 305.389102204 149.710454215 298.816376804 128 287 c 0
 100.778100212 272.183901635 78.2669578795 249.380573916 62 223 c 0
 41.7360071455 190.137324305 30.0323316032 151.595964532 31 113 c 0
 31.4464265318 95.1940422531 34.8381670304 77.3435608692 42.1468140247 61.1005590824 c 0
 49.455461019 44.8575572956 60.825174139 30.3630680167 75.3116591928 20 c 0
 89.2831309606 10.0053524588 105.957971951 3.98085271027 123.030661665 2.07867796053 c 0
 140.103351378 0.176503210791 157.492862381 2.24506462047 174 7 c 0
 205.801482963 16.1605219485 234.555255564 34.6420583233 258 58 c 0
 274.840038117 74.7776888868 288.998287846 94.3412404423 298.958800186 115.925167845 c 0
 308.919312525 137.509095247 314.608441677 161.236424366 314 185 c 0
 313.518998062 203.786231089 309.02512713 222.546695188 300.23081166 239.154339716 c 0
 291.43649619 255.761984245 278.3017513 270.09466161 262.331838565 280 c 0
 246.514403946 289.810763838 228.050603197 295.201914811 209.449175375 295.857054502 c 0
 190.847747554 296.512194192 172.193696626 292.521154522 155.132734158 285.080328982 c 0
 121.010809224 270.198677903 93.4122962553 242.353618757 75 210 c 0
 56.1458138997 176.869903645 46.7741910902 137.428215341 54 100 c 0
 57.2235272077 83.3027869968 63.6897092286 67.2304791024 73 53 c 1
 73.9170403587 54 l 1
 65.121781168 68.0229792459 59.0330765442 83.7272934691 56 100 c 0
 49.0796245946 137.128386447 58.3519693585 176.157045975 77 209 c 0
 94.8067105697 240.361219199 121.340606802 267.461745665 154.249982769 282.212270552 c 0
 170.704670752 289.587532996 188.714065274 293.679994116 206.742772779 293.338002207 c 0
 224.771480283 292.996010298 242.742654675 288.135371366 258.289237668 279 c 0
 273.759272198 269.909609492 286.708435111 256.654157523 295.697615263 241.125094185 c 0
 304.686795415 225.596030848 309.745201488 207.899235979 311 190 c 0
 312.539230568 168.043446092 308.443715412 145.844939912 300.255131344 125.414409297 c 0
 292.066547276 104.983878682 279.845898682 86.2498856173 265 70 c 0
 242.178070144 45.0197844082 213.222325097 25.3234402545 181 15 c 0
 164.395394337 9.68018977541 146.808088173 7.03480125089 129.437116673 8.53901506671 c 0
 112.066145173 10.0432288825 94.9936156948 15.8881774675 80.7892376682 26 c 0
 67.1491844231 35.7100906136 56.3431520945 49.2100649277 49.2628231986 64.3826011355 c 0
 42.1824943026 79.5551373433 38.711133708 96.2718440615 38 113 c 0
 36.4139542279 150.308906473 47.3436616618 187.651722099 66 220 c 0
 81.4868723293 246.852731809 103.146710971 270.514093876 130 286 c 0
 151.064728396 298.14772634 175.230310789 305.026549167 199.546539049 305.131814881 c 0
 223.862767308 305.237080595 248.183144715 298.567759294 269 286 c 1
 270 287 l 1
  Spiro
    270 287 v
    128 287 o
    62 223 o
    31 113 o
    75.3117 20 o
    174 7 o
    258 58 o
    314 185 o
    262.332 280 o
    75 210 o
    54 100 o
    73 53 v
    73.917 54 v
    56 100 o
    77 209 o
    258.289 279 o
    311 190 o
    265 70 o
    181 15 o
    80.7892 26 o
    38 113 o
    66 220 o
    130 286 o
    269 286 v
    0 0 z
  EndSpiro
EndSplineSet
Validated: 524329
EndChar

StartChar: A
Encoding: 65 65 1
Width: 500
VWidth: 0
InSpiro: 1
Flags: H
LayerCount: 4
Fore
SplineSet
432 300 m 1
 434 300 l 1
 400.798828125 254.4609375 371.807617188 205.853515625 347.517578125 155 c 0
 323.733398438 105.204101562 304.45703125 53.2568359375 290 0 c 1
 288 0 l 1
 302.145507812 53.283203125 321.254882812 105.247070312 345 155 c 0
 369.314453125 205.946289062 398.489257812 254.571289062 432 300 c 1
  Spiro
    432 300 v
    434 300 v
    347.518 155 o
    290 0 v
    288 0 v
    345 155 o
    0 0 z
  EndSpiro
434 300 m 1
 407.756835938 282.8671875 383.290039062 263.03125 361 241 c 0
 336.5625 216.84765625 314.889648438 190.016601562 295 162 c 0
 263.805664062 118.059570312 237.912109375 69.072265625 197 34 c 0
 176.448242188 16.3818359375 151.041015625 3.2431640625 124 2 c 0
 107.219726562 1.228515625 90.208984375 5.0849609375 75.5625 13.310546875 c 0
 60.916015625 21.5361328125 48.677734375 34.0595703125 41 49 c 0
 35.7099609375 59.294921875 32.5859375 70.7275390625 32.16015625 82.294921875 c 0
 31.7333984375 93.861328125 34.044921875 105.5390625 39 116 c 0
 48.2314453125 135.489257812 66.7646484375 149.955078125 87.5673828125 155.640625 c 0
 108.369140625 161.326171875 130.911132812 158.840820312 151 151 c 0
 174.989257812 141.63671875 195.921875 124.876953125 211 104 c 1
 210 103 l 1
 191.307617188 128.711914062 163.201171875 147.915039062 132 154 c 0
 114.077148438 157.495117188 95.0400390625 156.438476562 78.2158203125 149.338867188 c 0
 61.392578125 142.240234375 47.1572265625 128.799804688 40 112 c 0
 34.9638671875 100.177734375 33.419921875 86.9375 35.2958984375 74.224609375 c 0
 37.1728515625 61.51171875 42.376953125 49.345703125 50 39 c 0
 63.7880859375 20.287109375 85.82421875 7.78515625 109 6 c 0
 124.1796875 4.8310546875 139.53515625 8.111328125 153.404296875 14.3916015625 c 0
 167.272460938 20.6708984375 179.713867188 29.7822265625 191 40 c 0
 230.91796875 76.1416015625 260.387695312 122.150390625 293 165 c 0
 313.64453125 192.125 334.817382812 218.9765625 359 243 c 0
 380.95703125 264.813476562 405.419921875 284.143554688 432 300 c 1
 434 300 l 1
  Spiro
    434 300 v
    361 241 o
    295 162 o
    197 34 o
    124 2 o
    41 49 o
    39 116 o
    151 151 o
    211 104 v
    210 103 v
    132 154 o
    40 112 o
    50 39 o
    109 6 o
    191 40 o
    293 165 o
    359 243 o
    432 300 v
    0 0 z
  EndSpiro
323 104 m 1
 322 102 l 1
 317.447265625 104.279296875 312.16015625 105.073242188 307.143554688 104.206054688 c 0
 302.125976562 103.33984375 297.380859375 100.807617188 294 97 c 0
 290.623046875 93.1962890625 288.6875 88.0771484375 289 83 c 0
 289.208007812 79.6171875 290.392578125 76.3056640625 292.33984375 73.53125 c 0
 294.287109375 70.7568359375 296.97265625 68.5244140625 300 67 c 0
 303.569335938 65.2021484375 307.592773438 64.37890625 311.588867188 64.39453125 c 0
 315.584960938 64.41015625 319.557617188 65.248046875 323.30078125 66.646484375 c 0
 330.7890625 69.44140625 337.336914062 74.3603515625 343 80 c 0
 348.399414062 85.376953125 353.0703125 91.4716796875 357 98 c 1
 359 98 l 1
 355.083984375 91.462890625 350.401367188 85.375 345 80 c 0
 339.204101562 74.232421875 332.5234375 69.220703125 324.942382812 66.158203125 c 0
 317.360351562 63.095703125 308.653320312 62.12109375 301 65 c 0
 297.232421875 66.4169921875 293.79296875 68.7734375 291.278320312 71.916015625 c 0
 288.762695312 75.05859375 287.21875 78.98046875 287 83 c 0
 286.810546875 86.4912109375 287.610351562 90.0185546875 289.209960938 93.1279296875 c 0
 290.809570312 96.236328125 293.186523438 98.9248046875 296 101 c 0
 299.805664062 103.807617188 304.397460938 105.505859375 309.100585938 106.002929688 c 0
 313.803710938 106.500976562 318.625976562 105.798828125 323 104 c 1
  Spiro
    323 104 v
    322 102 v
    294 97 o
    289 83 o
    300 67 o
    343 80 o
    357 98 v
    359 98 v
    345 80 o
    301 65 o
    287 83 o
    296 101 o
    0 0 z
  EndSpiro
EndSplineSet
Validated: 524325
EndChar

StartChar: N
Encoding: 78 78 2
Width: 500
VWidth: 0
InSpiro: 1
Flags: HW
LayerCount: 4
Fore
SplineSet
273 0 m 1
 305.213867188 55.521484375 347.42578125 105.22265625 397 146 c 0
 421.666992188 166.290039062 448.138671875 184.383789062 476 200 c 1
 479 200 l 1
 450.817382812 184.012695312 424.018554688 165.588867188 399 145 c 0
 349.485351562 104.252929688 307.006835938 54.9775390625 274 0 c 1
 273 0 l 1
  Spiro
    397 146 o
    476 200 v
    479 200 v
    399 145 o
    274 0 v
    273 0 v
    0 0 z
  EndSpiro
417 300 m 1
 419 300 l 1
 385.798631333 254.461183436 356.80785799 205.853853781 332.51793722 155 c 0
 308.733501087 105.204438754 289.456646783 53.2569496477 275 0 c 1
 273 0 l 1
 287.145501024 53.2830387373 306.254881381 105.247143217 330 155 c 0
 354.314633317 205.946153968 383.489691589 254.571251089 417 300 c 1
  Spiro
    417 300 v
    419 300 v
    332.518 155 o
    275 0 v
    273 0 v
    330 155 o
    0 0 z
  EndSpiro
419 300 m 1
 392.757171334 282.867345702 368.29022175 263.030885458 346 241 c 0
 321.562978307 216.847291611 299.889686639 190.016454401 280 162 c 0
 248.805249813 118.059323004 222.912114879 69.072701496 182 34 c 0
 161.448502715 16.3818315989 136.041054096 3.24309768343 109 2 c 0
 92.2197145738 1.22859760324 75.2088236449 5.08489448105 60.5625457824 13.3104391693 c 0
 45.91626792 21.5359838576 33.6774809001 34.0591389916 26 49 c 0
 20.7097228369 59.2952122992 17.586201513 70.72758979 17.1598830961 82.2946413312 c 0
 16.7335646792 93.8616928724 19.0449515324 105.539315346 24 116 c 0
 33.2316358113 135.489058825 51.7650695914 149.954704082 72.5669772304 155.640401243 c 0
 93.3688848694 161.326098404 115.911016021 158.840869616 136 151 c 0
 159.989554409 141.636710724 180.92226596 124.876586 196 104 c 1
 195 103 l 1
 176.307307305 128.712002097 148.200893473 147.914931512 117 154 c 0
 99.0772630372 157.495447398 80.0399838155 156.438309895 63.2160394216 149.339186866 c 0
 46.3920950276 142.240063837 32.156774556 128.799500907 25 112 c 0
 19.9635283202 100.177605723 18.4201890293 86.937711641 20.2963116056 74.2249142504 c 0
 22.1724341819 61.5121168598 27.3773571391 49.3455482809 35 39 c 0
 48.7879882546 20.2867661796 70.8244341717 7.785185891 94 6 c 0
 109.1794986 4.83074152605 124.535054485 8.11148977023 138.40399456 14.3913659086 c 0
 152.272934636 20.671242047 164.714025584 29.7818238115 176 40 c 0
 215.917895302 76.1411493813 245.387894308 122.150593863 278 165 c 0
 298.644140545 192.124564447 319.817713121 218.976271385 344 243 c 0
 365.957274366 264.81330505 390.419436394 284.143902967 417 300 c 1
 419 300 l 1
  Spiro
    419 300 v
    346 241 o
    280 162 o
    182 34 o
    109 2 o
    26 49 o
    24 116 o
    136 151 o
    196 104 v
    195 103 v
    117 154 o
    25 112 o
    35 39 o
    94 6 o
    176 40 o
    278 165 o
    344 243 o
    417 300 v
    0 0 z
  EndSpiro
EndSplineSet
Validated: 524325
EndChar

StartChar: M
Encoding: 77 77 3
Width: 618
VWidth: 0
InSpiro: 1
Flags: HW
LayerCount: 4
Fore
SplineSet
491 300 m 1
 413 137 l 2
 402.482988268 115.02214215 389.772102437 94.0350041997 381.051726876 71.2844257128 c 0
 376.691539096 59.9091364709 373.758224367 47.672872546 375.175738094 35.5733230647 c 0
 375.884494958 29.5235483241 377.713352923 23.5660150115 380.869027127 18.3560408252 c 0
 384.024701331 13.1460666389 388.54274588 8.70564006825 394 6 c 0
 401.458867832 2.301984253 410.295571159 2.01835222897 418.38701493 3.97757847893 c 0
 426.478458702 5.93680472889 433.934524792 9.99182478388 440.729393405 14.8022083806 c 0
 454.319130629 24.4229755739 465.900948737 36.5608969872 478 48 c 2
 533 100 l 1
 535 100 l 1
 480 47 l 2
 467.732828584 35.1789075448 455.914139913 22.711748971 441.938715497 12.9696119475 c 0
 434.951003289 8.09854343572 427.284018953 4.02918940257 418.9963844 2.06181961744 c 0
 410.708749848 0.094449832322 401.702597616 0.363322902809 394 4 c 0
 388.274986129 6.70298772761 383.463512785 11.1815381864 380.014047137 16.4903151856 c 0
 376.56458149 21.7990921847 374.444273635 27.9158259768 373.477974564 34.1726776283 c 0
 371.545376423 46.6863809313 374.116776438 59.5182853434 378.316065523 71.4637312168 c 0
 386.714643693 95.3546229617 399.902915697 117.236750152 411 140 c 2
 489 300 l 1
 491 300 l 1
  Spiro
    491 300 v
    413 137 ]
    394 6 c
    478 48 [
    533 100 v
    535 100 v
    480 47 ]
    394 4 c
    411 140 [
    489 300 v
    0 0 z
  EndSpiro
273 0 m 1
 301.544921875 50.173828125 332.595703125 98.921875 366 146 c 0
 404.037109375 199.609375 445.125976562 251.052734375 489 300 c 1
 491 300 l 1
 447.564453125 251.291992188 406.815429688 200.188476562 369 147 c 0
 335.28515625 99.578125 303.901367188 50.5 275 0 c 1
 273 0 l 1
  Spiro
    366 146 o
    489 300 v
    491 300 v
    369 147 o
    275 0 v
    273 0 v
    0 0 z
  EndSpiro
417 300 m 1
 419 300 l 1
 385.798631333 254.461183436 356.80785799 205.853853781 332.51793722 155 c 0
 308.733501087 105.204438754 289.456646783 53.2569496477 275 0 c 1
 273 0 l 1
 287.145501024 53.2830387373 306.254881381 105.247143217 330 155 c 0
 354.314633317 205.946153968 383.489691589 254.571251089 417 300 c 1
  Spiro
    417 300 v
    419 300 v
    332.518 155 o
    275 0 v
    273 0 v
    330 155 o
    0 0 z
  EndSpiro
419 300 m 1
 392.757171334 282.867345702 368.29022175 263.030885458 346 241 c 0
 321.562978307 216.847291611 299.889686639 190.016454401 280 162 c 0
 248.805249813 118.059323004 222.912114879 69.072701496 182 34 c 0
 161.448502715 16.3818315989 136.041054096 3.24309768343 109 2 c 0
 92.2197145738 1.22859760324 75.2088236449 5.08489448105 60.5625457824 13.3104391693 c 0
 45.91626792 21.5359838576 33.6774809001 34.0591389916 26 49 c 0
 20.7097228369 59.2952122992 17.586201513 70.72758979 17.1598830961 82.2946413312 c 0
 16.7335646792 93.8616928724 19.0449515324 105.539315346 24 116 c 0
 33.2316358113 135.489058825 51.7650695914 149.954704082 72.5669772304 155.640401243 c 0
 93.3688848694 161.326098404 115.911016021 158.840869616 136 151 c 0
 159.989554409 141.636710724 180.92226596 124.876586 196 104 c 1
 195 103 l 1
 176.307307305 128.712002097 148.200893473 147.914931512 117 154 c 0
 99.0772630372 157.495447398 80.0399838155 156.438309895 63.2160394216 149.339186866 c 0
 46.3920950276 142.240063837 32.156774556 128.799500907 25 112 c 0
 19.9635283202 100.177605723 18.4201890293 86.937711641 20.2963116056 74.2249142504 c 0
 22.1724341819 61.5121168598 27.3773571391 49.3455482809 35 39 c 0
 48.7879882546 20.2867661796 70.8244341717 7.785185891 94 6 c 0
 109.1794986 4.83074152605 124.535054485 8.11148977023 138.40399456 14.3913659086 c 0
 152.272934636 20.671242047 164.714025584 29.7818238115 176 40 c 0
 215.917895302 76.1411493813 245.387894308 122.150593863 278 165 c 0
 298.644140545 192.124564447 319.817713121 218.976271385 344 243 c 0
 365.957274366 264.81330505 390.419436394 284.143902967 417 300 c 1
 419 300 l 1
  Spiro
    419 300 v
    346 241 o
    280 162 o
    182 34 o
    109 2 o
    26 49 o
    24 116 o
    136 151 o
    196 104 v
    195 103 v
    117 154 o
    25 112 o
    35 39 o
    94 6 o
    176 40 o
    278 165 o
    344 243 o
    417 300 v
    0 0 z
  EndSpiro
EndSplineSet
Validated: 524325
EndChar

StartChar: T
Encoding: 84 84 4
Width: 565
VWidth: 0
InSpiro: 1
Flags: HW
LayerCount: 4
Fore
SplineSet
523 300 m 1
 526 300 l 1
 514.134154426 290.799596732 500.307600343 284.163066985 485.735545844 280.543545035 c 0
 471.163491345 276.924023084 455.925932699 276.368361398 441 278 c 0
 413.555251789 281.000141533 387.325134011 291.056384288 360 295 c 0
 342.749763271 297.489587226 325.026841119 297.722283343 308 294 c 0
 294.903354694 291.13690729 282.227289095 285.667293459 272 277 c 0
 264.520734695 270.661566946 258.268681257 262.825729625 254 254 c 0
 251.13196644 248.070185325 249.170592291 241.558649896 249.420316323 234.976404345 c 0
 249.545178338 231.685281569 250.246975782 228.396570189 251.667232449 225.425046903 c 0
 253.087489117 222.453523616 255.246240005 219.806622687 258 218 c 0
 260.517662689 216.348270532 263.481984732 215.429056425 266.481993118 215.170627831 c 0
 269.482001503 214.912199237 272.519378785 215.298872458 275.414263062 216.127413755 c 0
 281.204031614 217.784496348 286.398820941 221.114579318 291 225 c 0
 296.072163332 229.283138748 300.541196214 234.284413388 304.22235956 239.809008832 c 0
 307.903522907 245.333604276 310.754800259 251.479141467 312 258 c 0
 313.532399921 266.024867633 312.440130176 274.610760876 308.470918441 281.751636751 c 0
 304.501706706 288.892512625 297.743637589 294.395613904 290 297 c 0
 281.542462698 299.844489079 272.124478543 299.270082956 263.759846502 296.162996512 c 0
 255.395214462 293.055910068 248.037840756 287.570048276 242 281 c 0
 228.320442786 266.114653578 220.802605861 246.13589918 219 226 c 1
 218 227 l 1
 220.239601411 245.337901384 226.672621885 263.405996207 238 278 c 0
 244.093852722 285.85121754 251.796722668 292.634855522 260.920929688 296.575097154 c 0
 270.045136708 300.515338786 280.640007538 301.341735921 290 298 c 0
 298.379729029 295.00824102 305.502663659 288.742564999 309.704092673 280.899193617 c 0
 313.905521688 273.055822235 315.225100611 263.813036304 314 255 c 0
 312.239227299 242.333486255 305.595974745 230.453292828 296 222 c 0
 290.198062079 216.888952762 283.138927445 213.002644 275.495404708 211.835661708 c 0
 271.67364334 211.252170562 267.72642653 211.372144939 263.992221915 212.373163306 c 0
 260.2580173 213.374181672 256.741841788 215.274449508 254 218 c 0
 249.847983785 222.127346037 247.658711568 227.960597671 247.214366726 233.798129822 c 0
 246.770021884 239.635661973 247.943979611 245.518485235 250 251 c 0
 254.48157642 262.948241102 262.847706675 273.268510306 273 281 c 0
 281.592319071 287.543489655 291.588453 292.128607838 302 295 c 0
 325.02566003 301.350228235 349.582577124 299.704330377 373 295 c 0
 394.741068885 290.632432683 415.986333214 283.673610886 438 281 c 0
 452.744880887 279.209200019 467.800293167 279.420922498 482.326645335 282.519885168 c 0
 496.852997502 285.618847839 510.777554359 291.560195531 523 300 c 1
  Spiro
    523 300 v
    526 300 v
    441 278 o
    360 295 o
    308 294 o
    272 277 o
    254 254 o
    258 218 c
    291 225 o
    312 258 o
    290 297 o
    242 281 o
    219 226 v
    218 227 v
    238 278 o
    290 298 o
    314 255 o
    296 222 o
    254 218 c
    250 251 o
    273 281 o
    302 295 o
    373 295 o
    438 281 o
    0 0 z
  EndSpiro
403 257 m 1
 376.892606006 239.674248977 352.405082427 219.904108088 330 198 c 0
 305.426122437 173.975590715 283.756327094 147.120014931 264 119 c 0
 243.206696022 89.404012065 224.121093634 57.9317837254 197 34 c 0
 176.678407558 16.0681288945 151.080556393 3.07823290507 124 2 c 0
 107.231233841 1.33233884902 90.2620959594 5.226940775 75.620689794 13.4285574092 c 0
 60.9792836286 21.6301740434 48.7058130857 34.0916890761 41 49 c 0
 35.6834375241 59.2858667288 32.5462271194 70.7218052047 32.1225850381 82.2926918738 c 0
 31.6989429568 93.8635785429 34.0275879221 105.54342269 39 116 c 0
 48.257440976 135.467643821 66.792997111 149.904903533 87.5857959884 155.592511483 c 0
 108.378594866 161.280119433 130.912337328 158.821456241 151 151 c 0
 174.999270174 141.655496135 195.940835371 124.892732756 211 104 c 1
 210 103 l 1
 191.298075756 128.703505487 163.19759703 147.905567763 132 154 c 0
 114.076323848 157.501379598 95.0357805201 156.450592768 78.2095697072 149.351546665 c 0
 61.3833588943 142.252500562 47.149257481 128.804938065 40 112 c 0
 34.9700076771 100.176575025 33.4334932078 86.9382445633 35.3104201653 74.2271727714 c 0
 37.1873471228 61.5161009795 42.3862229085 49.3501014151 50 39 c 0
 63.776295691 20.272625162 85.8170331246 7.74669348907 109 6 c 0
 124.173954907 4.85673613814 139.511696734 8.17989510309 153.367040743 14.471588211 c 0
 167.222384752 20.7632813189 179.662618015 29.8501364787 191 40 c 0
 217.972730833 64.1475092851 239.783219914 93.4159993027 262 122 c 0
 282.916018139 148.910446732 303.889664604 175.909676523 328 200 c 0
 349.897504362 221.879329123 374.360242792 241.235195021 401 257 c 1
 403 257 l 1
  Spiro
    403 257 v
    330 198 o
    264 119 o
    197 34 o
    124 2 o
    41 49 o
    39 116 o
    151 151 o
    211 104 v
    210 103 v
    132 154 o
    40 112 o
    50 39 o
    109 6 o
    191 40 o
    262 122 o
    328 200 o
    401 257 v
    0 0 z
  EndSpiro
EndSplineSet
Validated: 524325
EndChar

StartChar: F
Encoding: 70 70 5
Width: 565
VWidth: 0
InSpiro: 1
Flags: HW
LayerCount: 4
Fore
SplineSet
298 122 m 0
 297.182317394 119.713383154 296.513765177 117.373450397 296 115 c 2
 292 115 l 1
 302 134 l 1
 304 134 l 2
 301.52875383 130.259735526 299.509463877 126.221155621 298 122 c 0
  Spiro
    298 122 o
    296 115 v
    292 115 v
    302 134 v
    304 134 v
    0 0 z
  EndSpiro
523 300 m 1
 526 300 l 1
 514.134154426 290.799596732 500.307600343 284.163066985 485.735545844 280.543545035 c 0
 471.163491345 276.924023084 455.925932699 276.368361398 441 278 c 0
 413.555251789 281.000141533 387.325134011 291.056384288 360 295 c 0
 342.749763271 297.489587226 325.026841119 297.722283343 308 294 c 0
 294.903354694 291.13690729 282.227289095 285.667293459 272 277 c 0
 264.520734695 270.661566946 258.268681257 262.825729625 254 254 c 0
 251.13196644 248.070185325 249.170592291 241.558649896 249.420316323 234.976404345 c 0
 249.545178338 231.685281569 250.246975782 228.396570189 251.667232449 225.425046903 c 0
 253.087489117 222.453523616 255.246240005 219.806622687 258 218 c 0
 260.517662689 216.348270532 263.481984732 215.429056425 266.481993118 215.170627831 c 0
 269.482001503 214.912199237 272.519378785 215.298872458 275.414263062 216.127413755 c 0
 281.204031614 217.784496348 286.398820941 221.114579318 291 225 c 0
 296.072163332 229.283138748 300.541196214 234.284413388 304.22235956 239.809008832 c 0
 307.903522907 245.333604276 310.754800259 251.479141467 312 258 c 0
 313.532399921 266.024867633 312.440130176 274.610760876 308.470918441 281.751636751 c 0
 304.501706706 288.892512625 297.743637589 294.395613904 290 297 c 0
 281.542462698 299.844489079 272.124478543 299.270082956 263.759846502 296.162996512 c 0
 255.395214462 293.055910068 248.037840756 287.570048276 242 281 c 0
 228.320442786 266.114653578 220.802605861 246.13589918 219 226 c 1
 218 227 l 1
 220.239601411 245.337901384 226.672621885 263.405996207 238 278 c 0
 244.093852722 285.85121754 251.796722668 292.634855522 260.920929688 296.575097154 c 0
 270.045136708 300.515338786 280.640007538 301.341735921 290 298 c 0
 298.379729029 295.00824102 305.502663659 288.742564999 309.704092673 280.899193617 c 0
 313.905521688 273.055822235 315.225100611 263.813036304 314 255 c 0
 312.239227299 242.333486255 305.595974745 230.453292828 296 222 c 0
 290.198062079 216.888952762 283.138927445 213.002644 275.495404708 211.835661708 c 0
 271.67364334 211.252170562 267.72642653 211.372144939 263.992221915 212.373163306 c 0
 260.2580173 213.374181672 256.741841788 215.274449508 254 218 c 0
 249.847983785 222.127346037 247.658711568 227.960597671 247.214366726 233.798129822 c 0
 246.770021884 239.635661973 247.943979611 245.518485235 250 251 c 0
 254.48157642 262.948241102 262.847706675 273.268510306 273 281 c 0
 281.592319071 287.543489655 291.588453 292.128607838 302 295 c 0
 325.02566003 301.350228235 349.582577124 299.704330377 373 295 c 0
 394.741068885 290.632432683 415.986333214 283.673610886 438 281 c 0
 452.744880887 279.209200019 467.800293167 279.420922498 482.326645335 282.519885168 c 0
 496.852997502 285.618847839 510.777554359 291.560195531 523 300 c 1
  Spiro
    523 300 v
    526 300 v
    441 278 o
    360 295 o
    308 294 o
    272 277 o
    254 254 o
    258 218 c
    291 225 o
    312 258 o
    290 297 o
    242 281 o
    219 226 v
    218 227 v
    238 278 o
    290 298 o
    314 255 o
    296 222 o
    254 218 c
    250 251 o
    273 281 o
    302 295 o
    373 295 o
    438 281 o
    0 0 z
  EndSpiro
403 257 m 1
 376.904363638 239.657601039 352.415410753 219.892701972 330 198 c 0
 305.41373306 173.987064406 283.73187763 147.138205399 264 119 c 0
 243.231521754 89.383573338 224.166707878 57.8837266763 197 34 c 0
 176.652789269 16.1116632199 151.066865684 3.17743761425 124 2 c 0
 107.210445278 1.2696364076 90.190405629 5.07488314308 75.5170211417 13.2672189777 c 0
 60.8436366544 21.4595548123 48.5907148899 34.0065472222 41 49 c 0
 30.5623492013 69.6168228728 29.446281382 94.9589829112 39 116 c 0
 47.834381548 135.456756113 65.5587415314 150.469345615 85.987558693 156.73632935 c 0
 106.416375855 163.003313085 128.698846488 160.668944581 149 154 c 0
 177.826734276 144.530395565 204.129372781 127.329131893 234 122 c 0
 257.503325263 117.806839966 282.603208842 121.591946165 303 134 c 1
 303 132 l 1
 284.781790692 121.271846335 263.044003334 116.963739921 242 119 c 0
 222.731203693 120.864487477 204.341550154 127.790784555 186.546369711 135.41275134 c 0
 168.751189268 143.034718124 150.991723905 151.248034144 132 155 c 0
 113.926992497 158.570466136 94.6697106302 157.779760364 77.78317789 150.41587276 c 0
 60.8966451498 143.051985155 46.9166306075 129.074602475 40 112 c 0
 35.1866276263 100.117564099 33.7280368646 86.9339838915 35.563889881 74.245781487 c 0
 37.3997428973 61.5575790825 42.4697526736 49.3757511419 50 39 c 0
 63.6662989758 20.1695272337 85.792937103 7.6693304022 109 6 c 0
 124.171276697 4.9086997548 139.48979575 8.25744718612 153.342175592 14.5399741902 c 0
 167.194555433 20.8225011942 179.648907173 29.8752153373 191 40 c 0
 218.018157394 64.099267777 239.806462639 93.3957619269 262 122 c 0
 282.893448291 148.928612566 303.878057484 175.920584611 328 200 c 0
 349.907197227 221.868574708 374.37063239 241.219105513 401 257 c 1
 403 257 l 1
  Spiro
    403 257 v
    330 198 o
    264 119 o
    197 34 o
    124 2 o
    41 49 o
    39 116 o
    149 154 o
    234 122 o
    303 134 v
    303 132 v
    242 119 o
    132 155 o
    40 112 o
    50 39 o
    109 6 o
    191 40 o
    262 122 o
    328 200 o
    401 257 v
    0 0 z
  EndSpiro
EndSplineSet
Validated: 524325
EndChar

StartChar: K
Encoding: 75 75 6
Width: 500
VWidth: 0
InSpiro: 1
Flags: HW
LayerCount: 4
Fore
SplineSet
352 258 m 1
 308.714299072 206.487319019 260.412443646 159.191752248 208 117 c 0
 152.517733433 72.3370558152 92.4305705926 33.3978888348 29 1 c 1
 29 3 l 1
 91.636611214 35.3053346534 151.030224376 73.8944053518 206 118 c 0
 258.294768924 159.959274059 306.584569924 206.907691698 350 258 c 1
 352 258 l 1
  Spiro
    352 258 v
    208 117 o
    29 1 v
    29 3 v
    206 118 o
    350 258 v
    0 0 z
  EndSpiro
468 300 m 2
 468 299 l 2
 465.001575772 299.119113694 461.998416618 299.119305093 459 299 c 0
 438.088256547 298.167935011 417.181550288 291.272180554 401 278 c 0
 386.988920448 266.508049337 377.159060947 250.647015547 370 234 c 0
 364.272159285 220.681011078 359.923089846 206.802738715 354.205342273 193.479413761 c 0
 348.4875947 180.156088806 341.186626716 167.316795108 331 157 c 0
 323.859267146 149.768020285 315.44984548 143.585983571 305.895659923 140.120563737 c 0
 301.118567142 138.387853821 295.9941934 137.383656368 290.940937236 137.919847779 c 0
 288.414309154 138.187943484 285.916341461 138.854181866 283.659130299 140.020681991 c 0
 281.401919137 141.187182115 279.38521149 142.869996737 278 145 c 0
 277.046337529 146.466421689 276.40043644 148.142298057 276.201622856 149.880209975 c 0
 276.002809273 151.618121894 276.260893685 153.414570553 277 155 c 0
 277.70310375 156.508201684 278.841721365 157.813573144 280.252757073 158.695619307 c 0
 281.663792781 159.577665471 283.336201323 160.028304826 285 160 c 0
 287.504443649 159.957393979 289.919680962 158.830054142 291.777732556 157.15026322 c 0
 293.635784149 155.470472298 294.979157764 153.287342212 296 151 c 0
 299.366757793 143.456300348 300.511367302 135.125665214 302 127 c 0
 304.456828416 113.589462113 305.304642233 99.6869903024 302.226085193 86.4053857745 c 0
 299.147528152 73.1237812467 291.988760743 61.2479907353 286 49 c 0
 283.231973648 43.3389354533 280.844106834 37.3880269197 280.139301796 31.1260087507 c 0
 279.434496758 24.8639905817 280.59552723 18.3027527615 284 13 c 0
 286.168525424 9.62233921159 289.181214345 6.80484374921 292.65074929 4.78657167248 c 0
 296.120284236 2.76829959574 300.02232124 1.53774213014 304 1 c 0
 311.622179674 -0.0304419692406 319.429598263 1.40877243388 326.626788653 4.12168307216 c 0
 333.823979043 6.83459371043 340.500726675 10.8110273633 346.664988219 15.4111701067 c 0
 358.993511306 24.6114555936 369.435978926 36.2212959339 378 49 c 1
 378 49 l 1
 369.781040871 36.5021096945 359.773370761 25.1062356723 347.979240794 15.9058525506 c 0
 342.082175811 11.3056609897 335.70467457 7.27200847183 328.819003267 4.35230497457 c 0
 321.933331963 1.43260147731 314.469855037 -0.372026254777 307 0 c 0
 302.519985504 0.223121199279 298.055533715 1.2578156195 294.04607883 3.26893085233 c 0
 290.036623945 5.28004608517 286.515961794 8.28647752055 284 12 c 0
 280.372502539 17.3541327205 278.991134966 24.0458112394 279.520566148 30.4913661139 c 0
 280.04999733 36.9369209884 282.310538575 43.1184804463 285 49 c 0
 291.083864863 62.304660116 298.617995852 75.1591489341 301.579523382 89.4859331916 c 0
 304.541050913 103.812717449 303.134061108 118.709966639 300 133 c 0
 298.664182729 139.090778934 297.532779682 145.302015893 295 151 c 0
 294.078666784 153.072719573 292.873932524 155.060177997 291.182162173 156.57111625 c 0
 289.490391823 158.082054503 287.267468193 159.060077585 285 159 c 0
 283.480031604 158.959727757 281.974565972 158.456386382 280.740822588 157.567677746 c 0
 279.507079204 156.67896911 278.553098701 155.416335978 278 154 c 0
 277.266360721 152.121348497 277.241601628 149.995762476 277.814005542 148.061877314 c 0
 278.386409456 146.127992152 279.5347742 144.385882901 281 143 c 0
 282.775932527 141.320235337 285.002606176 140.154173346 287.348224668 139.465973119 c 0
 289.693843161 138.777772891 292.162646734 138.555062992 294.60448673 138.668918602 c 0
 299.488166722 138.896629822 304.241013057 140.419778175 308.667753705 142.494904652 c 0
 317.521235003 146.645157605 325.30135294 152.877019007 332 160 c 0
 341.513661257 170.116315689 348.460524189 182.399655393 353.908604112 195.173379156 c 0
 359.356684036 207.94710292 363.530498585 221.235433892 369 234 c 0
 376.324713911 251.094208017 386.536610183 267.30924568 401 279 c 0
 417.26850365 292.149827373 438.098730129 299.152008979 459 300 c 0
 461.998354219 300.121647032 465.001639582 300.121494153 468 300 c 2
  Spiro
    468 300 v
    468 299 v
    459 299 o
    401 278 o
    370 234 o
    331 157 o
    278 145 o
    277 155 o
    285 160 o
    296 151 o
    302 127 o
    286 49 o
    284 13 o
    304 1 o
    378 49 v
    378 49 v
    307 0 o
    284 12 o
    285 49 o
    300 133 o
    295 151 o
    285 159 o
    278 154 o
    281 143 o
    332 160 o
    369 234 o
    401 279 o
    459 300 o
    0 0 z
  EndSpiro
352 258 m 1
 295 162 l 2
 267.429481499 115.565442525 238.645192676 68.3799293972 197 34 c 0
 176.155298495 16.7917865184 150.991075944 3.45121033552 124 2 c 0
 107.205843058 1.09704028911 90.1417602593 4.90492784159 75.4891740757 13.1608809526 c 0
 60.836587892 21.4168340637 48.641751279 34.0179213381 41 49 c 0
 35.7428571502 59.3069211281 32.6365340414 70.7348378704 32.2068423399 82.2970841542 c 0
 31.7771506383 93.8593304379 34.0668201845 105.534155027 39 116 c 0
 48.1990718279 135.516024805 66.7298101832 150.01750545 87.5432263202 155.700801622 c 0
 108.356642457 161.384097794 130.909345585 158.865351349 151 151 c 0
 174.977302897 141.613052825 195.898894204 124.856232526 211 104 c 1
 210 103 l 1
 191.254567733 128.663396865 163.182026325 147.861400503 132 154 c 0
 114.071892848 157.529388 95.0159382181 156.508600433 78.1790094293 149.409907971 c 0
 61.3420806405 142.311215509 47.1137500775 128.830572348 40 112 c 0
 35.0005625769 100.171724853 33.4962055213 86.9407696628 35.3769250977 74.2378030256 c 0
 37.257644674 61.5348363883 42.4280452341 49.3714978925 50 39 c 0
 63.7210899915 20.2058761141 85.7828446655 7.56559936422 109 6 c 0
 124.148994202 4.97845987807 139.403478383 8.49881317417 153.197667741 14.8435676621 c 0
 166.991857099 21.1883221499 179.435495069 30.1614129439 191 40 c 0
 232.136158105 74.9968870352 264.776977139 118.951910068 293 165 c 2
 350 258 l 1
 352 258 l 1
  Spiro
    352 258 v
    295 162 ]
    197 34 o
    124 2 o
    41 49 o
    39 116 o
    151 151 o
    211 104 v
    210 103 v
    132 154 o
    40 112 o
    50 39 o
    109 6 o
    191 40 o
    293 165 [
    350 258 v
    0 0 z
  EndSpiro
EndSplineSet
Validated: 524325
EndChar

StartChar: H
Encoding: 72 72 7
Width: 566
VWidth: 0
InSpiro: 1
Flags: HW
LayerCount: 4
Fore
SplineSet
341 104 m 1
 340 102 l 1
 335.447265625 104.279296875 330.16015625 105.073242188 325.143554688 104.206054688 c 0
 320.125976562 103.33984375 315.380859375 100.807617188 312 97 c 0
 308.623046875 93.1962890625 306.6875 88.0771484375 307 83 c 0
 307.208007812 79.6171875 308.392578125 76.3056640625 310.33984375 73.53125 c 0
 312.287109375 70.7568359375 314.97265625 68.5244140625 318 67 c 0
 321.569335938 65.2021484375 325.592773438 64.37890625 329.588867188 64.39453125 c 0
 333.584960938 64.41015625 337.557617188 65.248046875 341.30078125 66.646484375 c 0
 348.7890625 69.44140625 355.336914062 74.3603515625 361 80 c 0
 366.399414062 85.376953125 371.0703125 91.4716796875 375 98 c 1
 377 98 l 1
 373.083984375 91.462890625 368.401367188 85.375 363 80 c 0
 357.204101562 74.232421875 350.5234375 69.220703125 342.942382812 66.158203125 c 0
 335.360351562 63.095703125 326.653320312 62.12109375 319 65 c 0
 315.232421875 66.4169921875 311.79296875 68.7734375 309.278320312 71.916015625 c 0
 306.762695312 75.05859375 305.21875 78.98046875 305 83 c 0
 304.810546875 86.4912109375 305.610351562 90.0185546875 307.209960938 93.1279296875 c 0
 308.809570312 96.236328125 311.186523438 98.9248046875 314 101 c 0
 317.805664062 103.807617188 322.397460938 105.505859375 327.100585938 106.002929688 c 0
 331.803710938 106.500976562 336.625976562 105.798828125 341 104 c 1
  Spiro
    341 104 v
    340 102 v
    312 97 o
    307 83 o
    318 67 o
    361 80 o
    375 98 v
    377 98 v
    363 80 o
    319 65 o
    305 83 o
    314 101 o
    0 0 z
  EndSpiro
525 300 m 1
 486.165039062 282.552734375 451.328125 256.541992188 422.81640625 224.924804688 c 0
 394.303710938 193.30859375 372.649414062 156.231445312 352 119 c 2
 286 0 l 1
 284 0 l 1
 349 119 l 2
 369.4296875 156.40234375 390.8984375 193.659179688 419.416992188 225.329101562 c 0
 447.936523438 256.999023438 482.956054688 282.915039062 522 300 c 1
 525 300 l 1
  Spiro
    525 300 v
    352 119 [
    286 0 v
    284 0 v
    349 119 ]
    522 300 v
    0 0 z
  EndSpiro
352 258 m 1
 308.714299072 206.487319019 260.412443646 159.191752248 208 117 c 0
 152.517733433 72.3370558152 92.4305705926 33.3978888348 29 1 c 1
 29 3 l 1
 91.636611214 35.3053346534 151.030224376 73.8944053518 206 118 c 0
 258.294768924 159.959274059 306.584569924 206.907691698 350 258 c 1
 352 258 l 1
  Spiro
    352 258 v
    208 117 o
    29 1 v
    29 3 v
    206 118 o
    350 258 v
    0 0 z
  EndSpiro
352 258 m 1
 295 162 l 2
 267.429481499 115.565442525 238.645192676 68.3799293972 197 34 c 0
 176.155298495 16.7917865184 150.991075944 3.45121033552 124 2 c 0
 107.205843058 1.09704028911 90.1417602593 4.90492784159 75.4891740757 13.1608809526 c 0
 60.836587892 21.4168340637 48.641751279 34.0179213381 41 49 c 0
 35.7428571502 59.3069211281 32.6365340414 70.7348378704 32.2068423399 82.2970841542 c 0
 31.7771506383 93.8593304379 34.0668201845 105.534155027 39 116 c 0
 48.1990718279 135.516024805 66.7298101832 150.01750545 87.5432263202 155.700801622 c 0
 108.356642457 161.384097794 130.909345585 158.865351349 151 151 c 0
 174.977302897 141.613052825 195.898894204 124.856232526 211 104 c 1
 210 103 l 1
 191.254567733 128.663396865 163.182026325 147.861400503 132 154 c 0
 114.071892848 157.529388 95.0159382181 156.508600433 78.1790094293 149.409907971 c 0
 61.3420806405 142.311215509 47.1137500775 128.830572348 40 112 c 0
 35.0005625769 100.171724853 33.4962055213 86.9407696628 35.3769250977 74.2378030256 c 0
 37.257644674 61.5348363883 42.4280452341 49.3714978925 50 39 c 0
 63.7210899915 20.2058761141 85.7828446655 7.56559936422 109 6 c 0
 124.148994202 4.97845987807 139.403478383 8.49881317417 153.197667741 14.8435676621 c 0
 166.991857099 21.1883221499 179.435495069 30.1614129439 191 40 c 0
 232.136158105 74.9968870352 264.776977139 118.951910068 293 165 c 2
 350 258 l 1
 352 258 l 1
  Spiro
    352 258 v
    295 162 ]
    197 34 o
    124 2 o
    41 49 o
    39 116 o
    151 151 o
    211 104 v
    210 103 v
    132 154 o
    40 112 o
    50 39 o
    109 6 o
    191 40 o
    293 165 [
    350 258 v
    0 0 z
  EndSpiro
EndSplineSet
Validated: 524325
EndChar

StartChar: P
Encoding: 80 80 8
Width: 565
VWidth: 0
InSpiro: 1
Flags: HW
LayerCount: 4
Fore
SplineSet
403 257 m 1
 377.137169234 239.331308864 352.618017463 219.66780902 330 198 c 0
 305.169958634 174.213096698 283.248247413 147.493028874 264 119 c 0
 243.720355956 88.9802028256 225.0425779 56.9361289157 197 34 c 0
 176.155160835 16.9509284052 150.76664536 4.9537870982 124 2 c 0
 108.052780933 0.24017207623 91.3708758138 2.0340405992 77.1729719804 9.50600935006 c 0
 62.975068147 16.9779781009 52.0390366565 30.4727023225 48 46 c 0
 45.4633364029 55.7517141164 45.4512857092 66.0434908497 47 76 c 0
 50.047324053 95.5909019487 58.3915663739 113.968048515 67.669578584 131.489695483 c 0
 76.947590794 149.011342452 87.4857080322 165.859656028 99 182 c 0
 118.6430597 209.53497489 141.55802261 234.95622893 168.505977968 255.397176526 c 0
 195.453933327 275.838124121 226.671212274 291.236620324 260 297 c 0
 282.605317881 300.909023956 306.143003692 300.365694585 328.164848796 293.937693107 c 0
 350.186693901 287.509691629 370.986617836 274.892663906 384 256 c 0
 390.720301212 246.243551558 395.18958149 234.828335145 396.085751343 223.015307838 c 0
 396.981921197 211.20228053 394.163364993 199.117493095 388 189 c 0
 382.429539417 179.855791187 374.276259444 172.417757799 365.022804913 167.030721027 c 0
 355.769350383 161.643684256 345.478405676 158.20218083 335 156 c 0
 315.334758626 151.867079505 294.958179161 151.660377231 275 154 c 1
 276 155 l 1
 296.007153713 152.951365345 316.408892047 153.45339766 336 158 c 0
 346.257940997 160.380609543 356.304635556 164.00523503 365.241067483 169.575947706 c 0
 374.17749941 175.146660383 381.929058304 182.770796046 387 192 c 0
 391.872414054 200.867880119 394.174517929 211.106301222 393.695251757 221.213230551 c 0
 393.215985585 231.32015988 390.035559324 241.223733207 385 250 c 0
 373.28537309 270.416935742 352.289144188 284.397816371 329.84283089 291.486311844 c 0
 307.396517593 298.574807317 283.162117395 299.195243318 260 295 c 0
 226.902681907 289.005241394 196.073497776 273.268395619 169.387359028 252.793542886 c 0
 142.70122028 232.318690153 119.804003238 207.187700371 100 180 c 0
 87.5473833115 162.904566955 76.1555746929 145.000517488 66.5414979959 126.161965987 c 0
 56.927421299 107.323414487 48.6847604075 87.1388882529 48 66 c 0
 47.6663820323 55.7010503811 49.3959736397 45.2186010585 54 36 c 0
 58.9298068237 26.1290916153 67.1604601078 17.9955236611 76.9739532984 12.9523917913 c 0
 86.787446489 7.90925992151 97.9674551007 5.85584486653 109 6 c 0
 124.059670093 6.1967749755 138.900049026 10.237234582 152.68641079 16.3009473893 c 0
 166.472772554 22.3646601966 179.287080708 30.5321646949 191 40 c 0
 219.201241647 62.79574414 240.429162109 92.85115896 262 122 c 0
 282.284271959 149.410294487 303.567135782 176.213216299 328 200 c 0
 350.165849444 221.579715811 374.651429852 240.790068871 401 257 c 1
 403 257 l 1
  Spiro
    403 257 v
    330 198 o
    264 119 o
    197 34 o
    124 2 o
    48 46 o
    47 76 o
    99 182 o
    260 297 o
    384 256 o
    388 189 o
    335 156 o
    275 154 v
    276 155 v
    336 158 o
    387 192 o
    385 250 o
    260 295 o
    100 180 o
    48 66 o
    54 36 o
    109 6 o
    191 40 o
    262 122 o
    328 200 o
    401 257 v
    0 0 z
  EndSpiro
EndSplineSet
Validated: 524325
EndChar

StartChar: B
Encoding: 66 66 9
Width: 565
VWidth: 0
InSpiro: 1
Flags: HW
LayerCount: 4
Fore
SplineSet
403 257 m 1
 377.137117901 239.331380118 352.617973177 219.667858417 330 198 c 0
 305.170012075 174.213047092 283.248354095 147.492951648 264 119 c 0
 243.720248618 88.9802916801 225.042387549 56.9363402557 197 34 c 0
 176.155269186 16.9507442022 150.76672276 4.9533842737 124 2 c 0
 108.052861801 0.240426084656 91.3711461005 2.03464035067 77.1733602035 9.50660078483 c 0
 62.9755743066 16.978561219 52.0393548357 30.4728969342 48 46 c 0
 45.4631145403 55.7516765923 45.4509427129 66.043524433 47 76 c 0
 50.0479621351 95.5905992494 58.3948758499 113.966499658 67.6742379217 131.487204315 c 0
 76.9535999935 149.007908971 87.4910002443 165.856128818 99 182 c 0
 118.636822032 209.544906773 141.533307298 234.98963489 168.478726133 255.441311411 c 0
 195.424144968 275.892987931 226.659608922 291.277676047 260 297 c 0
 282.602633255 300.879366303 306.12848032 300.304407557 328.142209048 293.876012702 c 0
 350.155937777 287.447617846 370.96316755 274.867154333 384 256 c 0
 390.736108989 246.251373683 395.218009934 234.835165713 396.109289993 223.019223125 c 0
 397.000570053 211.203280538 394.156184172 199.124834607 388 189 c 0
 380.271802555 176.28973683 367.705540938 167.062765765 354.072221076 161.112268716 c 0
 340.438901214 155.161771667 325.757934461 151.865260316 311 150 c 0
 304.939741052 149.234041827 298.83113643 148.650734388 292.727303327 148.88875095 c 0
 289.675386775 149.00775923 286.612040011 149.358526311 283.693505638 150.258812224 c 0
 280.774971266 151.159098136 277.957056327 152.655157117 276 155 c 0
 274.845674732 156.383052369 274.019991392 158.066586947 273.795292818 159.853990436 c 0
 273.570594245 161.641393924 273.979284856 163.515600702 275 165 c 0
 275.854716678 166.242992078 277.118462894 167.192648758 278.538442022 167.701794301 c 0
 279.958421149 168.210939843 281.518919279 168.286303692 283 168 c 0
 285.103646532 167.593349802 287.029137978 166.481078184 288.618718121 165.044440412 c 0
 290.208298263 163.607802641 291.487180709 161.854345435 292.560538117 160 c 0
 295.762803096 154.467727712 297.518949956 148.218281791 299 142 c 0
 302.972002816 125.323296279 303.030530391 107.807449846 299.90101677 90.9523201264 c 0
 296.771503148 74.097190407 290.578881231 57.8422387188 282 43 c 0
 269.909393053 22.0821588826 252.786249187 3.4450083636 231 -7 c 0
 219.764046347 -12.3868671412 207.297013597 -15.4125140137 194.845703134 -14.9330770229 c 0
 182.39439267 -14.4536400322 170.059199034 -10.353741012 160 -3 c 0
 149.697270156 4.53177332791 141.941107211 15.335828765 137.501990024 27.3011156525 c 0
 133.062872838 39.26640254 131.808795916 52.2935101415 133 65 c 0
 134.62837198 82.3697289365 140.69656857 99.2417737429 150 114 c 0
 164.319101053 136.714687018 186.605984915 154.274310391 212 163 c 1
 212 162 l 1
 186.860237295 153.874056397 165.143314824 135.919247451 152 113 c 0
 143.59573257 98.3446799792 138.429305634 81.8335142308 137 65 c 0
 135.98907887 53.0939703649 136.905023325 40.9377799125 140.57948825 29.5679157659 c 0
 144.253953176 18.1980516192 150.844407383 7.6779311691 160 0 c 0
 170.071250308 -8.44580682971 183.091386515 -13.1905408298 196.228901672 -13.5997245031 c 0
 209.366416829 -14.0089081765 222.451348576 -10.2761760703 234 -4 c 0
 253.495693916 6.59503860118 268.802493443 23.843988643 280 43 c 0
 288.578038716 57.6747855176 294.868673378 73.7204742461 298.205529023 90.3877317471 c 0
 301.542384667 107.054989248 301.814680473 124.435571513 298 141 c 0
 296.981456481 145.422805893 295.726454114 149.802619977 294 154 c 0
 293.123309848 156.131421681 292.113547691 158.217283935 290.832294941 160.13299148 c 0
 289.551042192 162.048699025 287.976646873 163.814921462 286 165 c 0
 284.352812523 165.987554506 282.389442627 166.536054522 280.491972858 166.239239826 c 0
 279.543237973 166.090832479 278.624995324 165.731945501 277.842674387 165.175082345 c 0
 277.06035345 164.618219189 276.41887276 163.864099666 276 163 c 0
 275.458438487 161.88280364 275.298694831 160.593485045 275.499217351 159.368247396 c 0
 275.699739871 158.143009746 276.247020973 156.987136852 277 156 c 0
 278.490589492 154.045874101 280.718733556 152.761507048 283.042220346 151.960336529 c 0
 285.365707135 151.159166009 287.821013441 150.800344745 290.272488593 150.625031767 c 0
 295.175438897 150.27440581 300.10328785 150.570965773 305 151 c 0
 320.839043074 152.387766198 336.629709056 155.611539898 351.278431488 161.793458017 c 0
 365.927153919 167.975376137 379.422859205 178.021870015 387 192 c 0
 391.8186998 200.889423331 394.108364319 211.11431977 393.636922661 221.214787961 c 0
 393.165481004 231.315256152 390.010849926 241.217454928 385 250 c 0
 373.329077062 270.455692796 352.338088164 284.485172086 329.878609787 291.571612731 c 0
 307.419131409 298.658053375 283.167042578 299.234849251 260 295 c 0
 226.917804072 288.95269758 196.111254686 273.199721598 169.421794179 252.738190574 c 0
 142.732333672 232.276659551 119.812228584 207.174936108 100 180 c 0
 87.5399792154 162.90953149 76.1471677695 145.00520888 66.5350282639 126.165277724 c 0
 56.9228887584 107.325346567 48.6839477901 87.1392631675 48 66 c 0
 47.6667842709 55.7010633115 49.3961838739 45.2186770587 54 36 c 0
 58.9296169807 26.128939618 67.1601914151 17.9951650109 76.9737397353 12.9520284861 c 0
 86.7872880555 7.90889196124 97.9674063448 5.85566053881 109 6 c 0
 124.059640955 6.19702533503 138.899929839 10.2376178444 152.686281563 16.301289244 c 0
 166.472633286 22.3649606436 179.287010234 30.5322930222 191 40 c 0
 219.201470415 62.7954829258 240.429285196 92.8510508212 262 122 c 0
 282.284150702 149.41038873 303.567074373 176.213274177 328 200 c 0
 350.165900338 221.579658614 374.651485778 240.789984516 401 257 c 1
 403 257 l 1
  Spiro
    403 257 v
    330 198 o
    264 119 o
    197 34 o
    124 2 o
    48 46 o
    47 76 o
    99 182 o
    260 297 o
    384 256 o
    388 189 o
    311 150 o
    276 155 o
    275 165 o
    283 168 o
    292.561 160 o
    299 142 o
    282 43 o
    231 -7 o
    160 -3 o
    133 65 o
    150 114 o
    212 163 v
    212 162 v
    152 113 o
    137 65 o
    160 0 o
    234 -4 o
    280 43 o
    298 141 o
    294 154 o
    286 165 o
    276 163 o
    277 156 o
    305 151 o
    387 192 o
    385 250 o
    260 295 o
    100 180 o
    48 66 o
    54 36 o
    109 6 o
    191 40 o
    262 122 o
    328 200 o
    401 257 v
    0 0 z
  EndSpiro
EndSplineSet
Validated: 524325
EndChar

StartChar: R
Encoding: 82 82 10
Width: 565
VWidth: 0
InSpiro: 1
Flags: HW
LayerCount: 4
Fore
SplineSet
403 257 m 1
 377.137112162 239.331388083 352.617968226 219.667863939 330 198 c 0
 305.170018049 174.213041546 283.248366021 147.492943015 264 119 c 0
 243.720236618 88.9803016129 225.04236627 56.9363638806 197 34 c 0
 176.155281298 16.9507236107 150.766731412 4.95333924312 124 2 c 0
 108.052870841 0.240454479251 91.3711763148 2.03470739427 77.1734036013 9.5066668989 c 0
 62.9756308878 16.9786264035 52.0393904039 30.4729186894 48 46 c 0
 45.4630897387 55.7516723974 45.4509043684 66.0435281879 47 76 c 0
 50.0480334684 95.5905654188 58.3952458533 113.966326502 67.6747589753 131.486925741 c 0
 76.9542720972 149.007524979 87.4915925959 165.85573413 99 182 c 0
 118.636126047 209.546021653 141.530539847 234.993382497 168.47566739 255.4462761 c 0
 195.420794933 275.899169703 226.658294725 291.282356742 260 297 c 0
 282.602276198 300.87597908 306.126736556 300.297327033 328.139444631 293.868735714 c 0
 350.152152706 287.440144394 370.95982018 274.863716851 384 256 c 0
 390.73848384 246.252216387 395.222823121 234.835922465 396.114458354 223.019347815 c 0
 397.006093586 211.202773166 394.159571818 199.123543098 388 189 c 0
 380.26850848 176.292933675 367.699705914 167.071851062 354.066983198 161.122534541 c 0
 340.434260482 155.173218021 325.756172766 151.871058793 311 150 c 0
 304.939669783 149.23155995 298.830732063 148.646328809 292.726520522 148.884454658 c 0
 289.674414752 149.003517583 286.610887693 149.354843046 283.692423066 150.256003317 c 0
 280.773958439 151.157163589 277.956452587 152.654404364 276 155 c 0
 274.846194358 156.383300314 274.020962817 158.066804383 273.796295011 159.854068101 c 0
 273.571627205 161.641331819 273.979860167 163.515378183 275 165 c 0
 275.854389215 166.243402942 277.117980411 167.193626566 278.538061299 167.702941868 c 0
 279.958142188 168.21225717 281.518956847 168.287302951 283 168 c 0
 285.10283139 167.592078285 287.026461117 166.47759269 288.614386969 165.039958706 c 0
 290.20231282 163.602324722 291.479497784 161.849230051 292.560538117 160 c 0
 296.904428697 152.569330892 299.224970358 144.147603283 302 136 c 0
 305.818214885 124.789561143 308.845716985 113.262394081 310.069266611 101.482936088 c 0
 311.292816237 89.7034780957 310.724926773 77.8206254258 310 66 c 0
 309.340198389 55.2413027177 308.621023916 44.3499474336 310.596514621 33.753611187 c 0
 311.584259973 28.4554430636 313.275880768 23.2544886475 315.968506422 18.5858707119 c 0
 318.661132077 13.9172527762 322.388290619 9.78897166127 327 7 c 0
 331.426173407 4.32323284493 336.57633614 2.93688164978 341.743516437 2.6995186256 c 0
 346.910696735 2.46215560141 352.09866825 3.34680899178 357 5 c 0
 366.862490673 8.32656137788 375.501471348 14.6240425365 382.960907557 21.8829366895 c 0
 390.420343766 29.1418308426 396.821387449 37.4213510508 402.721249232 45.9961025821 c 0
 414.520972797 63.1456056451 424.588447465 81.4322427198 434 100 c 1
 435 100 l 1
 425.892074772 81.7241746564 416.07288757 63.7597223993 404.64170738 46.8396688114 c 0
 398.926117286 38.3796420174 392.752411089 30.1914220927 385.635238606 22.8711844374 c 0
 378.518066123 15.5509467821 370.373441706 9.04705004526 361 5 c 0
 355.610875141 2.67320705782 349.816999956 1.194362287 343.948747209 1.0520884355 c 0
 338.080494463 0.909814584006 332.128127925 2.14361484858 327 5 c 0
 322.155800921 7.69823579352 318.15274696 11.7828655664 315.193612789 16.472243571 c 0
 312.234478617 21.1616215756 310.288868355 26.4452354545 309.100880413 31.8614542247 c 0
 306.72490453 42.693891765 307.283363041 53.9332301039 308 65 c 0
 308.764419066 76.8046519885 309.613976663 88.6554912262 308.646294464 100.445221344 c 0
 307.678612265 112.234951461 304.81197009 123.801650608 301 135 c 0
 298.824629596 141.390542755 296.675353456 147.802116734 294 154 c 0
 293.087460863 156.114042551 292.077577044 158.195369925 290.803975201 160.113661334 c 0
 289.530373358 162.031952742 287.969920499 163.807810079 286 165 c 0
 284.35543443 165.995286103 282.389590208 166.547305411 280.490593445 166.248973993 c 0
 279.541095063 166.099808284 278.62245537 165.739153533 277.840410908 165.180401313 c 0
 277.058366445 164.621649093 276.417802612 163.865585676 276 163 c 0
 275.460475263 161.882235603 275.301907992 160.593488589 275.502280265 159.368606905 c 0
 275.702652538 158.14372522 276.248609783 156.987874957 277 156 c 0
 278.488348481 154.043224199 280.714678398 152.754339014 283.037737337 151.949634161 c 0
 285.360796276 151.144929307 287.816693503 150.78363708 290.268887787 150.607864693 c 0
 295.173276354 150.256319919 300.102740564 150.560158026 305 151 c 0
 320.828864613 152.42165208 336.599956936 155.687469308 351.244386045 161.861183394 c 0
 365.888815155 168.034897481 379.402716017 178.04094109 387 192 c 0
 391.834984076 200.88367839 394.134070085 211.11180181 393.66114421 221.214927755 c 0
 393.188218334 231.3180537 390.022602497 241.221032128 385 250 c 0
 373.308015277 270.436329232 352.312336989 284.438544312 329.859692346 291.525490606 c 0
 307.407047704 298.612436901 283.164559105 299.212987148 260 295 c 0
 226.909411855 288.981745047 196.090194916 273.237981161 169.402561141 252.769062772 c 0
 142.714927367 232.300144383 119.807616858 207.182066347 100 180 c 0
 87.5441225394 162.906752995 76.1518747145 145.002582154 66.5386509555 126.163423323 c 0
 56.9254271965 107.324264492 48.6844029208 87.1390531751 48 66 c 0
 47.6665589868 55.7010560677 49.3960661234 45.2186344916 54 36 c 0
 58.9297233107 26.1290247506 67.1603419092 17.9953658895 76.9738593513 12.9522319722 c 0
 86.7873767935 7.90909805485 97.9674336527 5.85576378024 109 6 c 0
 124.059657275 6.19688510977 138.899996596 10.2374031809 152.686353943 16.3010977727 c 0
 166.47271129 22.3647923646 179.287049706 30.5322211467 191 40 c 0
 219.201342283 62.7956292311 240.429216255 92.8511113893 262 122 c 0
 282.284218618 149.410335945 303.567108768 176.21324176 328 200 c 0
 350.165871832 221.57969065 374.651454454 240.790031763 401 257 c 1
 403 257 l 1
  Spiro
    403 257 v
    330 198 o
    264 119 o
    197 34 o
    124 2 o
    48 46 o
    47 76 o
    99 182 o
    260 297 o
    384 256 o
    388 189 o
    311 150 o
    276 155 o
    275 165 o
    283 168 o
    292.561 160 o
    302 136 o
    310 66 o
    327 7 c
    357 5 o
    434 100 v
    435 100 v
    361 5 o
    327 5 c
    308 65 o
    301 135 o
    294 154 o
    286 165 o
    276 163 o
    277 156 o
    305 151 o
    387 192 o
    385 250 o
    260 295 o
    100 180 o
    48 66 o
    54 36 o
    109 6 o
    191 40 o
    262 122 o
    328 200 o
    401 257 v
    0 0 z
  EndSpiro
EndSplineSet
Validated: 524325
EndChar

StartChar: G
Encoding: 71 71 11
Width: 565
VWidth: 0
InSpiro: 1
Flags: HW
LayerCount: 4
Fore
SplineSet
13 1 m 1
 45.2016230185 18.1220537055 75.951405267 37.9480524181 105 60 c 0
 143.39226771 89.1451026415 178.725899119 122.107681745 213 156 c 0
 235.798597465 178.544641615 258.64957663 201.079374301 280 225 c 0
 291.063423412 237.395258201 301.023579447 250.714188153 311 264 c 0
 313.282207948 267.039264958 315.650319355 270.012592182 318 273 c 0
 320.415458088 276.071037926 322.854003823 279.25448413 324.000226549 282.98970637 c 0
 324.573337911 284.85731749 324.7908873 286.850689184 324.478824967 288.779171756 c 0
 324.166762634 290.707654328 323.31170601 292.552293098 322 294 c 0
 320.080329502 296.118706638 317.242809491 297.283191852 314.38974121 297.467729173 c 0
 311.536672928 297.652266494 308.692410416 296.961758178 306 296 c 0
 296.723653859 292.686388631 287.8996516 288.222181834 279 284 c 0
 269.792238274 279.631644244 261.327194568 273.875647935 253 268 c 0
 242.645547456 260.693923841 231.989170224 253.798071209 222 246 c 0
 211.02031212 237.428678657 201.272040394 227.394727627 192 217 c 0
 178.267995674 201.60528226 164.541931476 186.098219056 153 169 c 0
 143.747832179 155.293837173 135.66164479 140.321064789 133 124 c 0
 132.165160098 118.880805966 131.949220695 113.635870665 132.698672911 108.503480716 c 0
 133.448125127 103.371090766 135.195747108 98.363401303 138 94 c 0
 140.923548071 89.4509760881 144.980052744 85.6495634062 149.666869481 82.9524351655 c 0
 154.353686218 80.2553069249 159.631578342 78.6486915894 165 78 c 0
 177.944091718 76.4359046355 191.036950327 80.2209921942 202.761523788 85.9245245983 c 0
 214.486097249 91.6280570023 225.168870497 99.2591695458 235.431827202 107.300787814 c 0
 255.957740616 123.384024352 275.294891175 140.920998121 295 158 c 1
 296 158 l 1
 277.197405951 140.395807383 258.347286045 122.785287008 238.155589948 106.793396894 c 0
 228.0597419 98.7974518367 217.529939443 91.248766639 206.041855125 85.4276667533 c 0
 194.553770807 79.6065668676 181.868567477 75.4888676696 169 76 c 0
 163.0712911 76.2354850144 157.153900665 77.4979130737 151.775796644 80.0041132944 c 0
 146.397692623 82.5103135152 141.598268216 86.2822136274 138 91 c 0
 134.388722961 95.7348425914 132.018658796 101.373237907 130.931526424 107.227996607 c 0
 129.844394053 113.082755306 130.001714739 119.129439315 131 125 c 0
 133.796798785 141.446979266 142.485762371 156.295822069 152 170 c 0
 163.764253559 186.945070146 177.076232907 202.779560651 191 218 c 0
 200.881510939 228.801741864 211.45337529 239.000147583 223 248 c 0
 232.414155342 255.337729495 242.245699838 262.120884991 252 269 c 0
 260.326572239 274.872225286 268.843998865 280.529823463 278 285 c 0
 286.852510792 289.322005366 295.698980818 293.753814565 305 297 c 0
 308.331271083 298.162660076 311.884102561 298.967326692 315.379578123 298.486914284 c 0
 317.127315903 298.246708081 318.837799978 297.677069894 320.336660217 296.746637545 c 0
 321.835520456 295.816205197 323.111177687 294.5239033 324 293 c 0
 324.86517469 291.516641014 325.359303665 289.825785142 325.481748989 288.112925467 c 0
 325.604194314 286.400065791 325.362243966 284.671498318 324.872339792 283.025632277 c 0
 323.892531444 279.733900194 321.984340032 276.80319802 320 274 c 0
 317.380449709 270.299465783 314.642363379 266.684279168 312 263 c 0
 302.314558605 249.495472105 292.160313265 236.313710103 281 224 c 0
 260.418942879 201.291930342 238.650865005 179.690467592 217 158 c 0
 182.276910241 123.213396649 146.284212538 89.538980694 107 60 c 0
 77.6256940669 37.9125760755 46.5296428034 18.1034056186 14 1 c 1
 13 1 l 1
  Spiro
    13 1 v
    105 60 o
    213 156 o
    280 225 o
    311 264 o
    318 273 o
    322 294 o
    306 296 o
    279 284 o
    253 268 o
    222 246 o
    192 217 o
    153 169 o
    133 124 o
    138 94 o
    165 78 o
    295 158 v
    296 158 v
    169 76 o
    138 91 o
    131 125 o
    152 170 o
    191 218 o
    223 248 o
    252 269 o
    278 285 o
    305 297 o
    324 293 o
    320 274 o
    312 263 o
    281 224 o
    217 158 o
    107 60 o
    14 1 v
    0 0 z
  EndSpiro
295.865470852 158 m 1
 285.188119325 144.973070455 274.937925775 131.599424998 265 118 c 0
 243.697609863 88.849021868 224.151370448 57.7986225313 197 34 c 0
 176.62379222 16.1399189223 151.072985402 3.1071589834 124 2 c 0
 107.229264646 1.31415505051 90.2530592874 5.20274840338 75.6108901904 13.4085287898 c 0
 60.9687210934 21.6143091763 48.701083317 34.0862056015 41 49 c 0
 35.6878429729 59.2874380724 32.5529170986 70.7227759179 32.1288246055 82.2930196462 c 0
 31.7047321125 93.8632633745 34.0304899943 105.542736272 39 116 c 0
 48.2531313447 135.471222448 66.7883355515 149.913219027 87.582654434 155.600507091 c 0
 108.376973316 161.287795156 130.912116735 158.824697389 151 151 c 0
 174.997648091 141.652358345 195.937733051 124.890036687 211 104 c 1
 210 103 l 1
 191.292422729 128.698300132 163.195577081 147.899832164 132 154 c 0
 114.075748274 157.505014303 95.0332048258 156.458119437 78.2056042319 149.359120672 c 0
 61.378003638 142.260121907 47.1446479011 128.808269738 40 112 c 0
 34.9739794992 100.175945203 33.4416510001 86.9385735295 35.3190778135 74.2285608437 c 0
 37.1965046269 61.5185481579 42.3916860111 49.3529083913 50 39 c 0
 63.7691134861 20.2638686102 85.8123657781 7.72183763461 109 6 c 0
 124.169711734 4.87354698113 139.495357927 8.22592518008 153.339258401 14.5295328893 c 0
 167.183158875 20.8331405986 179.614198059 29.9127523746 191 40 c 0
 217.33761018 63.3337974018 239.303146461 91.1115517258 262 118 c 0
 273.268851489 131.349953104 284.544438425 144.694268658 295.865470852 158 c 1
 295.865470852 158 l 1
  Spiro
    295.865 158 v
    265 118 o
    197 34 o
    124 2 o
    41 49 o
    39 116 o
    151 151 o
    211 104 v
    210 103 v
    132 154 o
    40 112 o
    50 39 o
    109 6 o
    191 40 o
    262 118 o
    295.865 158 v
    0 0 z
  EndSpiro
EndSplineSet
Validated: 524325
EndChar

StartChar: S
Encoding: 83 83 12
Width: 500
VWidth: 0
InSpiro: 1
Flags: HW
LayerCount: 4
Fore
SplineSet
3 0 m 1
 51.1617751596 13.7558461884 98.1834415542 31.6335970717 143 54 c 0
 183.280798886 74.1027613321 221.198117425 98.7073457474 257 126 c 0
 272.69430458 137.964153777 288.203920107 150.170543889 304 162 c 0
 314.298990747 169.712765436 324.675675747 177.321179139 335 185 c 0
 353.937563668 199.085005021 373.209540346 212.719337897 392 227 c 0
 401.400796297 234.144561543 410.691298408 241.773258427 417.342539858 251.529318996 c 0
 420.668160583 256.407349281 423.273783866 261.838397572 424.456635367 267.622496032 c 0
 425.639486868 273.406594492 425.341078321 279.580195118 423 285 c 0
 421.47568886 288.528916091 419.0771663 291.696129173 416 294 c 0
 411.56447557 297.320871977 405.801240297 298.678303225 400.2924509 298.082226857 c 0
 394.783661502 297.48615049 389.587785827 295.107135154 385 292 c 0
 377.046602134 286.61346213 370.603802085 279.301663753 364.468326758 271.910637414 c 0
 358.33285143 264.519611075 352.532967784 256.852235054 347 249 c 0
 336.391766745 233.945088371 327.095341223 218.014360586 318 202 c 0
 310.404175114 188.625869697 302.83970142 175.232648967 295 162 c 0
 267.489194651 115.564452207 238.439085204 68.5818843798 197 34 c 0
 176.238185434 16.6737808693 151.006009525 3.38789875626 124 2 c 0
 107.210024391 1.13712589623 90.1622902608 4.96008335023 75.511682081 13.2067501091 c 0
 60.8610739013 21.453416868 48.6527311826 34.0305799005 41 49 c 0
 35.7326845539 59.3033356102 32.6210822749 70.7326173726 32.1924252934 82.2963360607 c 0
 31.7637683119 93.8600547488 34.0601042758 105.535738586 39 116 c 0
 48.2090799376 135.507743732 66.7406495373 149.998207641 87.5505267742 155.68224038 c 0
 108.360404011 161.366273119 130.909859301 158.857828293 151 151 c 0
 174.98106762 141.620318968 195.906070825 124.86248601 211 104 c 1
 210 103 l 1
 191.290878362 128.696877773 163.195025154 147.898265379 132 154 c 0
 114.075591313 157.506007272 95.032501636 156.460175401 78.2045218166 149.361188926 c 0
 61.3765419973 142.262202452 47.1433919837 128.809177991 40 112 c 0
 34.975060928 100.175772035 33.4438684349 86.9386611735 35.3214240504 74.2289340109 c 0
 37.1989796659 61.5192068484 42.3931435915 49.3536522646 50 39 c 0
 63.7671708066 20.2615761959 85.8112667615 7.71644093258 109 6 c 0
 124.169517152 4.87714521101 139.493165512 8.23389751535 153.337418607 14.5356202769 c 0
 167.181671701 20.8373430384 179.619845183 29.9070752582 191 40 c 0
 231.323984872 75.7628653685 263.431989123 119.936278137 293 165 c 0
 301.37489162 177.76392207 309.298307803 190.818935795 317 204 c 0
 326.057968764 219.50226428 334.912197553 235.147281807 345 250 c 0
 350.74033476 258.451749028 356.811134738 266.689253115 363.420746729 274.480051156 c 0
 370.030358721 282.270849197 377.188015076 289.829658958 386 295 c 0
 390.423388603 297.595377527 395.313750333 299.508465039 400.416116629 300.026354431 c 0
 405.518482925 300.544243823 410.807149109 299.575479851 415.242152466 297 c 0
 419.550446071 294.4981026 422.957500293 290.544125805 425 286 c 0
 427.643960195 280.117753013 428.04945469 273.368765988 426.783607 267.045081559 c 0
 425.517759309 260.72139713 422.649895005 254.790192787 418.97395644 249.49124659 c 0
 411.622079308 238.893354198 401.329473029 230.724468103 391 223 c 0
 372.472477114 209.144960235 353.660066748 195.676006 335 182 c 0
 324.029434807 173.959647442 312.970427941 166.040539826 302 158 c 0
 288.557160801 148.14735938 275.306171998 138.03644557 262 128 c 0
 224.962896459 100.064026089 186.336558788 74.0583613952 145 53 c 0
 100.733283144 30.4489084562 54.0236678501 12.7208992305 6 0 c 1
 3 0 l 1
  Spiro
    3 0 v
    143 54 o
    257 126 o
    304 162 o
    335 185 o
    392 227 o
    423 285 o
    416 294 o
    385 292 o
    347 249 o
    318 202 o
    295 162 o
    197 34 o
    124 2 o
    41 49 o
    39 116 o
    151 151 o
    211 104 v
    210 103 v
    132 154 o
    40 112 o
    50 39 o
    109 6 o
    191 40 o
    293 165 o
    317 204 o
    345 250 o
    386 295 o
    415.242 297 o
    425 286 o
    391 223 o
    335 182 o
    302 158 o
    262 128 o
    145 53 o
    6 0 v
    0 0 z
  EndSpiro
EndSplineSet
Validated: 524325
EndChar

StartChar: L
Encoding: 76 76 13
Width: 500
VWidth: 0
InSpiro: 1
Flags: H
LayerCount: 4
Fore
SplineSet
136 0 m 1
 164.98518315 21.8355615702 193.348439713 44.4984297336 221 68 c 0
 246.000141172 89.2480803368 270.441298715 111.164160397 294 134 c 0
 313.476734654 152.879121695 332.411562509 172.3502713 350 193 c 0
 361.418748826 206.406197422 372.131388504 220.41492334 382 235 c 0
 386.456098918 241.585784065 390.80908719 248.242365862 395 255 c 0
 397.83365838 259.569130276 400.559174153 264.209494758 403 269 c 0
 404.829242786 272.59017714 406.557448966 276.237747007 408 280 c 0
 408.870345542 282.269909378 409.610642127 284.600335358 410 287 c 0
 410.375664794 289.315272363 410.47088329 291.702201253 410 294 c 0
 409.799809397 294.976882653 409.483528743 295.936012035 408.991736889 296.803489278 c 0
 408.499945034 297.670966521 407.825114529 298.440033921 407 299 c 0
 406.28024161 299.488465867 405.453697713 299.81400592 404.598148124 299.971123526 c 0
 403.742598535 300.128241133 402.861362888 300.121264246 402 300 c 0
 399.311710303 299.62153765 396.865177759 298.25895299 394.578980189 296.794905204 c 0
 392.29278262 295.330857417 390.119571107 293.696335335 388 292 c 0
 385.232759279 289.785321662 382.57990387 287.43033277 380 285 c 0
 376.568298723 281.767253165 373.257714428 278.408008576 370 275 c 0
 355.51800614 259.849881605 341.637754757 244.135378543 327.7510071 228.437847748 c 0
 313.864259443 212.740316953 300.465895326 196.543872946 289 179 c 0
 279.766949505 164.872584723 271.628490991 150.054541144 264 135 c 0
 258.344673996 123.839426026 252.943872062 112.515589732 248.787554471 100.71448183 c 0
 244.63123688 88.9133739276 241.798396514 76.5100151748 242 64 c 0
 242.137755185 55.45193625 243.727259708 46.8979453875 247 39 c 0
 251.519471078 28.0933796853 259.299584904 18.5873880027 269.022313725 11.8904835092 c 0
 278.745042546 5.19357901569 290.261883111 1.26356536139 302 0 c 0
 317.092408676 -1.62464260699 332.58213449 1.03006681321 346.422521582 7.26416244877 c 0
 360.262908674 13.4982580843 372.524410189 23.406960629 381 36 c 0
 387.058750126 45.0020966764 391.142868904 55.3761617203 392.474126513 66.1452819646 c 0
 393.805384122 76.914402209 392.331189682 88.0507792469 388 98 c 0
 381.0790664 113.898148373 366.684736509 126.280888726 350 131 c 0
 336.631158012 134.781243588 322.01927147 133.815213527 309.143579795 128.595989156 c 0
 296.267888119 123.376764784 285.086885152 113.949886946 278 102 c 0
 272.307424298 92.4011939501 269.319457483 81.1390914168 270 70 c 0
 270.493238959 61.9266853659 272.901828882 53.9732838277 277 47 c 1
 278 47 l 1
 274.410903937 54.1299694866 272.354427625 62.0255121488 272 70 c 0
 271.505032739 81.1365766562 274.366264057 92.3807821765 280 102 c 0
 286.650240136 113.354829033 297.133550355 122.40182923 309.300944812 127.413051471 c 0
 321.468339269 132.424273713 335.282778796 133.380846208 348 130 c 0
 365.272364072 125.40817875 380.182130172 112.52077583 387 96 c 0
 390.852204963 86.6654987182 392.197858077 76.3375564898 391.068737872 66.3027428482 c 0
 389.939617667 56.2679292065 386.373244674 46.5498911652 381 38 c 0
 372.8535448 25.0373843789 360.640491959 14.7870710688 346.75046165 8.34803433448 c 0
 332.86043134 1.90899760016 317.197084507 -0.85546720634 302 1 c 0
 290.648442554 2.38595284981 279.538569537 6.46737713949 270.436116191 13.3900980519 c 0
 261.333662845 20.3128189643 254.465353584 30.1018328937 251 41 c 0
 248.747236844 48.084699649 247.866464585 55.5669602956 248 63 c 0
 248.443117649 87.6654498155 258.578648263 111.133736205 270 133 c 0
 277.202615281 146.789461123 285.301429502 160.101869274 294 173 c 0
 317.762127116 208.234182667 346.15411408 240.05482247 373 273 c 0
 375.992748199 276.672690148 378.931152579 280.390655155 382 284 c 0
 384.446865019 286.877816467 387.051702128 289.638535265 390 292 c 0
 391.818761856 293.456753072 393.735621843 294.788958698 395.708312026 296.029328659 c 0
 397.68100221 297.26969862 399.723695647 298.501539678 402 299 c 0
 402.861852015 299.188726535 403.759012475 299.251613258 404.628259907 299.100565248 c 0
 405.49750734 298.949517238 406.330471779 298.574576854 407 298 c 0
 407.577343349 297.504534515 408.027951349 296.870359888 408.349357325 296.180787855 c 0
 408.6707633 295.491215823 408.869241399 294.749475535 409 294 c 0
 409.402467914 291.693154772 409.330786461 289.318209578 409 287 c 0
 408.656354181 284.591669787 407.900208439 282.260037971 407 280 c 0
 405.509268365 276.257411112 403.795179395 272.606464103 402 269 c 0
 399.603806036 264.186114805 396.863710378 259.551307401 394 255 c 0
 389.765409011 248.269946063 385.431990602 241.601730542 381 235 c 0
 371.328786836 220.594115813 360.502480528 206.990565999 349 194 c 0
 331.02213115 173.696319309 312.292539418 154.058886137 293 135 c 0
 270.660945358 112.931495195 247.093560455 92.1383368541 223 72 c 0
 193.720793435 47.5272980215 163.910710915 23.6967181642 134 0 c 1
 136 0 l 1
  Spiro
    136 0 v
    221 68 o
    294 134 o
    350 193 o
    382 235 o
    395 255 o
    403 269 o
    408 280 o
    410 287 o
    410 294 o
    407 299 o
    402 300 o
    388 292 o
    380 285 o
    370 275 o
    289 179 o
    264 135 o
    242 64 o
    247 39 o
    302 0 o
    381 36 o
    388 98 o
    350 131 o
    278 102 o
    270 70 o
    277 47 v
    278 47 v
    272 70 o
    280 102 o
    348 130 o
    387 96 o
    381 38 o
    302 1 o
    251 41 o
    248 63 o
    270 133 o
    294 173 o
    373 273 o
    382 284 o
    390 292 o
    402 299 o
    407 298 o
    409 294 o
    409 287 o
    407 280 o
    402 269 o
    394 255 o
    381 235 o
    349 194 o
    293 135 o
    223 72 o
    134 0 v
    0 0 z
  EndSpiro
EndSplineSet
Validated: 524325
EndChar

StartChar: X
Encoding: 88 88 14
Width: 788
VWidth: 0
InSpiro: 1
Flags: HW
LayerCount: 4
Fore
SplineSet
622 300 m 2
 601.43981366 297.108614323 581.403632125 290.611851958 563 281 c 0
 536.182250204 266.993621306 513.154036438 246.419932458 494 223 c 0
 477.059717381 202.286858096 462.605102195 179.603364621 450 156 c 0
 437.766121203 133.091760343 427.487372533 108.735062997 424 83 c 0
 422.065420916 68.7237750979 421.928631521 54.0755067175 425 40 c 0
 426.301970297 34.0333138822 428.25466907 28.1776878076 431.193683408 22.8243090051 c 0
 434.132697746 17.4709302026 438.099533572 12.6444339294 443 9 c 0
 447.441075564 5.69721103 452.619565799 3.39683888034 458.043815199 2.29725459857 c 0
 463.468064599 1.19767031679 469.107600482 1.28803983286 474.541179874 2.34055213065 c 0
 485.408338657 4.44557672622 495.24089589 10.2321078792 504 17 c 0
 519.143360551 28.7008120081 532.238659434 42.9036018033 544 58 c 0
 554.139821564 71.0150796255 562.927525486 85.0940151869 570 100 c 1
 571 100 l 1
 564.184104215 85.4825957014 555.741695123 71.7401271209 546 59 c 0
 533.509191494 42.6645998254 519.46053697 27.3254338117 503 15 c 0
 494.167919621 8.38665425495 484.246958591 2.82378260218 473.376863571 0.93089591496 c 0
 467.94181606 -0.0155474286494 462.32229775 -0.00701844104364 456.931340157 1.16476339723 c 0
 451.540382565 2.3365452355 446.406820684 4.68105018124 442 8 c 0
 437.124607775 11.6718494585 433.172445122 16.499971281 430.231887111 21.8483398527 c 0
 427.2913291 27.1967084244 425.322999105 33.0416779908 424 39 c 0
 420.731424616 53.7205123419 420.928062804 69.0639983629 423 84 c 0
 426.568415326 109.723683737 436.692701716 134.131421079 449 157 c 0
 461.549307377 180.318263647 476.137682673 202.582145326 493 223 c 0
 511.317456914 245.179820604 532.885403174 264.973927989 558 279 c 0
 576.876503608 289.542203833 597.624341241 296.753207311 619 300 c 2
 622 300 l 2
  Spiro
    622 300 v
    563 281 o
    494 223 o
    450 156 o
    424 83 o
    425 40 o
    443 9 o
    504 17 o
    544 58 o
    570 100 v
    571 100 v
    546 59 o
    503 15 o
    442 8 o
    424 39 o
    423 84 o
    449 157 o
    493 223 o
    558 279 o
    619 300 v
    0 0 z
  EndSpiro
250 1 m 1
 231.599574357 39.8865920535 227.528695968 85.0352873795 237 127 c 0
 243.321531747 155.008948101 255.126506666 181.612457857 270.069504899 206.1312209 c 0
 285.012503132 230.649983943 302.890844388 253.679296534 325 272 c 0
 339.774200973 284.242609339 356.863153032 294.216769653 375.641890883 298.155995786 c 0
 394.420628735 302.095221919 414.831136431 299.330844531 431 289 c 0
 446.975935601 278.792423801 458.006590408 261.708721765 462.347518757 243.253872233 c 0
 466.688447106 224.799022701 464.878551219 205.320067363 460 187 c 0
 452.705866132 159.608871401 439.265904315 134.195193765 423.947220424 110.345325029 c 0
 408.628536533 86.4954562944 390.961581513 64.1249491512 371 44 c 0
 354.804537561 27.6719922284 337.046929384 12.8884181518 318 0 c 1
 316 0 l 1
 336.508777535 13.2764337963 355.307319464 29.1610519687 372 47 c 0
 407.089381772 84.4989299367 435.815145699 128.604594823 453 177 c 0
 459.936881247 196.535410235 464.162151531 217.534222789 461.078460762 238.03406244 c 0
 459.536615378 248.283982266 456.12799596 258.293785403 450.700584859 267.124490491 c 0
 445.273173758 275.95519558 437.818418576 283.552648586 429 289 c 0
 413.646906866 298.483978661 394.487750732 300.95012687 376.820304131 297.272539261 c 0
 359.15285753 293.594951651 343.021877383 284.360029696 329 273 c 0
 306.440591661 254.723164335 288.320680807 231.442694038 273.037737069 206.756640136 c 0
 257.754793331 182.070586235 245.535235078 155.288872883 239 127 c 0
 229.21753236 84.6549305039 233.592562367 38.8864108434 253 0 c 1
 250 1 l 1
  Spiro
    250 1 v
    237 127 o
    325 272 o
    431 289 o
    460 187 o
    371 44 o
    318 0 v
    316 0 v
    372 47 o
    453 177 o
    429 289 o
    329 273 o
    239 127 o
    253 0 v
    0 0 z
  EndSpiro
EndSplineSet
Validated: 524325
EndChar

StartChar: W
Encoding: 87 87 15
Width: 788
VWidth: 0
InSpiro: 1
Flags: HW
LayerCount: 4
Fore
SplineSet
480 0 m 1
 508.4201192 52.429094763 543.451006528 101.270235749 584 145 c 0
 601.961494957 164.370442341 621.000629845 182.741537409 641 200 c 1
 640 200 l 1
 619.587287906 182.851625596 600.207315402 164.474065462 582 145 c 0
 541.388578409 101.56309208 506.642785366 52.6491115832 479 0 c 1
 480 0 l 1
  Spiro
    480 0 v
    584 145 o
    641 200 v
    640 200 v
    582 145 o
    479 0 v
    0 0 z
  EndSpiro
617 300 m 1
 616 300 l 1
 573.297423794 223.535187667 535.526566928 144.316664858 503 63 c 0
 494.653674547 42.1341228486 486.652217875 21.1302990858 479 0 c 1
 480 0 l 1
 487.364801563 20.1139797419 495.032628121 40.1170055459 503 60 c 0
 535.96457572 142.264827875 574.063014252 222.472066889 617 300 c 1
  Spiro
    616 300 v
    503 63 o
    479 0 v
    480 0 v
    503 60 o
    617 300 v
    0 0 z
  EndSpiro
317 0 m 1
 359.166746278 21.88912027 399.105436484 48.0674214135 436 78 c 0
 510.668445866 138.578549001 572.700069707 214.661535149 617 300 c 1
 616 300 l 1
 571.257006434 215.777894464 509.694342344 140.534638354 436 80 c 0
 398.790369737 49.4349465694 358.52529173 22.5915612313 316 0 c 1
 317 0 l 1
  Spiro
    317 0 v
    436 78 o
    617 300 v
    616 300 v
    436 80 o
    316 0 v
    0 0 z
  EndSpiro
250 1 m 1
 231.599574357 39.8865920535 227.528695968 85.0352873795 237 127 c 0
 243.321531747 155.008948101 255.126506666 181.612457857 270.069504899 206.1312209 c 0
 285.012503132 230.649983943 302.890844388 253.679296534 325 272 c 0
 339.774200973 284.242609339 356.863153032 294.216769653 375.641890883 298.155995786 c 0
 394.420628735 302.095221919 414.831136431 299.330844531 431 289 c 0
 446.975935601 278.792423801 458.006590408 261.708721765 462.347518757 243.253872233 c 0
 466.688447106 224.799022701 464.878551219 205.320067363 460 187 c 0
 452.705866132 159.608871401 439.265904315 134.195193765 423.947220424 110.345325029 c 0
 408.628536533 86.4954562944 390.961581513 64.1249491512 371 44 c 0
 354.804537561 27.6719922284 337.046929384 12.8884181518 318 0 c 1
 316 0 l 1
 336.508777535 13.2764337963 355.307319464 29.1610519687 372 47 c 0
 407.089381772 84.4989299367 435.815145699 128.604594823 453 177 c 0
 459.936881247 196.535410235 464.162151531 217.534222789 461.078460762 238.03406244 c 0
 459.536615378 248.283982266 456.12799596 258.293785403 450.700584859 267.124490491 c 0
 445.273173758 275.95519558 437.818418576 283.552648586 429 289 c 0
 413.646906866 298.483978661 394.487750732 300.95012687 376.820304131 297.272539261 c 0
 359.15285753 293.594951651 343.021877383 284.360029696 329 273 c 0
 306.440591661 254.723164335 288.320680807 231.442694038 273.037737069 206.756640136 c 0
 257.754793331 182.070586235 245.535235078 155.288872883 239 127 c 0
 229.21753236 84.6549305039 233.592562367 38.8864108434 253 0 c 1
 250 1 l 1
  Spiro
    250 1 v
    237 127 o
    325 272 o
    431 289 o
    460 187 o
    371 44 o
    318 0 v
    316 0 v
    372 47 o
    453 177 o
    429 289 o
    329 273 o
    239 127 o
    253 0 v
    0 0 z
  EndSpiro
EndSplineSet
Validated: 524325
EndChar

StartChar: Z
Encoding: 90 90 16
Width: 500
VWidth: 0
Flags: HW
LayerCount: 4
Fore
SplineSet
157.323242188 -0.15625 m 1
 147.619140625 26.96875 134.391248682 69.4482876222 141.103515625 119.204101562 c 0
 146.313476562 157.822265625 160.122070312 195.48828125 182.67578125 227.266601562 c 0
 205.23046875 259.045898438 237.182617188 285.211914062 274.723632812 295.6640625 c 0
 318.880902039 307.960522741 358.516621652 294.489132198 381.823242188 270.1640625 c 0
 405.845762772 245.091386759 415.960683805 204.616643618 402.584960938 162.842773438 c 0
 382.797084477 101.044960557 321.434552332 40.2753097698 268.603515625 10.064453125 c 0
 240.063476562 -6.255859375 224.405644543 0.624126338854 257.36328125 25.3642578125 c 0
 310.228881664 65.0485930785 352 36 327.04296875 -8.736328125 c 0
 291.210847655 -72.9666250169 224.384765625 -145.319335938 187.962890625 -180.755859375 c 0
 150.223632812 -217.475585938 148.919146017 -198.318192283 169.583007812 -165.576171875 c 0
 240 -54 375 34 448.943359375 99.84375 c 1
 451 100 l 1
 378 34 242 -55 171 -167 c 0
 149.901590992 -200.281997309 153 -214 190 -176 c 0
 224.755271963 -140.305396363 287.538085938 -73.9326171875 325 -8 c 4
 350 36 305.981396383 62.0224800841 257 23 c 0
 229.854788407 1.37396323934 239 -5 270 13 c 0
 320.712890625 42.4462890625 377.368164062 103.486328125 396.354492188 162.783203125 c 0
 408.872070312 201.875976562 403.270564132 244.684760707 380 268 c 0
 358.126953125 289.915039062 320.763671875 305.7421875 275 293 c 0
 238.1953125 282.752929688 206.870117188 257.099609375 184.7578125 225.943359375 c 0
 162.645507812 194.788085938 148.108398438 155.861328125 143 118 c 0
 136.202148438 67.60546875 148.965820312 27.0888671875 159 0 c 1
 157.323242188 -0.15625 l 1
EndSplineSet
Validated: 524325
Layer: 2
SplineSet
152.323242188 -1.15625 m 4
 143.337890625 26.1640625 138.729492188 54.9267578125 138.729492188 83.6826171875 c 4
 138.729492188 95.55859375 139.515625 107.43359375 141.103515625 119.204101562 c 4
 146.313476562 157.822265625 160.122070312 195.48828125 182.67578125 227.266601562 c 4
 205.23046875 259.045898438 237.182617188 285.211914062 274.723632812 295.6640625 c 4
 285.623046875 298.69921875 296.953125 300.340820312 308.260742188 300.340820312 c 4
 316.225585938 300.340820312 324.178710938 299.526367188 331.961914062 297.809570312 c 4
 350.79296875 293.657226562 368.481445312 284.088867188 381.823242188 270.1640625 c 4
 395.0703125 256.337890625 403.840820312 238.399414062 407.150390625 219.541015625 c 4
 408.223632812 213.415039062 408.734375 207.2109375 408.734375 201.000976562 c 4
 408.734375 188.091796875 406.52734375 175.155273438 402.584960938 162.842773438 c 4
 390.907226562 126.373046875 365.271484375 96.0712890625 337.962890625 69.224609375 c 4
 311.653320312 43.3583984375 300.34375 28.873046875 268.603515625 10.064453125 c 4
 241.063476562 -6.255859375 225.763671875 -1.15625 256.36328125 25.3642578125 c 4
 275.180664062 41.6728515625 353.629882812 91.2294921875 342.04296875 20.263671875 c 4
 333.8828125 -29.7158203125 221.384765625 -149.319335938 184.962890625 -184.755859375 c 4
 147.223632812 -221.475585938 145.18359375 -205.15625 165.583007812 -175.576171875 c 4
 220.388671875 -96.107421875 373.663085938 29.4443359375 438.943359375 100.84375 c 1029
EndSplineSet
EndChar

StartChar: Q
Encoding: 81 81 17
Width: 500
VWidth: 0
Flags: HW
LayerCount: 4
Fore
SplineSet
163 0 m 17
 153.838867188 15.64453125 146.765625 32.5078125 142 50 c 0
 136.990234375 68.3896484375 134.543945312 87.4267578125 134.543945312 106.485351562 c 0
 134.543945312 147.28125 145.750976562 188.170898438 167 223 c 0
 184.73046875 252.061523438 210.260742188 278.174804688 241.787109375 291.0234375 c 0
 255.845703125 296.75390625 271.991210938 300.939453125 287.162109375 300.939453125 c 0
 289.000976562 300.939453125 290.83984375 300.892578125 292.677734375 300.797851562 c 0
 309.676757812 299.921875 327.483398438 294.888671875 342 286 c 0
 359.698242188 275.1640625 371.775390625 256.62109375 379.952148438 237.547851562 c 0
 385.912109375 223.646484375 388.76171875 208.515625 388.76171875 193.374023438 c 0
 388.76171875 187.741210938 388.3671875 182.107421875 387.591796875 176.534179688 c 0
 384.733398438 155.98046875 376.841796875 136.28515625 365.817382812 118.704101562 c 0
 354.791992188 101.123046875 340.697265625 85.5732421875 325 72 c 0
 283.997070312 36.5439453125 233.154769333 13.6309538665 180 3 c 0
 170 1 165.390625 0.482421875 161 1 c 0
 139.128725036 3.57824193299 138.043627001 20.6954709795 170 7 c 4
 176.999648394 4.00017641396 187.027358665 -1.07159481273 211 0 c 4
 348.041868349 6.12587295651 416 100 416 100 c 13
 414.634765625 100.010742188 l 17
 414.634765625 100.010742188 348.125341961 7.81077784845 210.174804688 1.0107421875 c 4
 185.60728604 -0.20027160199 177.227539062 5.29296875 170.07421875 8.23046875 c 4
 135.469110252 22.4410034068 138.535906331 2.57881147147 160.854492188 0.0302734375 c 0
 165.47265625 -0.4970703125 169.0546875 0.0107421875 179.274414062 2.05078125 c 0
 233.495912935 12.8743561325 285.3515625 34.28515625 327.174804688 70.4501953125 c 0
 343.185546875 84.2958984375 358.5625 100.155273438 369.807617188 118.088867188 c 0
 381.053710938 136.021484375 389.102539062 156.110351562 392.018554688 177.075195312 c 0
 392.809570312 182.759765625 393.211914062 188.506835938 393.211914062 194.251953125 c 0
 393.211914062 209.696289062 390.3046875 225.129882812 384.225585938 239.309570312 c 0
 375.884765625 258.763671875 361.526367188 275.637695312 343.474609375 286.690429688 c 0
 328.666992188 295.756835938 311.524414062 300.890625 294.185546875 301.78515625 c 0
 292.310546875 301.881835938 290.435546875 301.9296875 288.559570312 301.9296875 c 0
 273.084960938 301.9296875 257.63671875 298.6796875 243.296875 292.834960938 c 0
 211.140625 279.728515625 185.099609375 254.11328125 167.014648438 224.470703125 c 0
 145.340820312 188.9453125 133.91015625 147.237304688 133.91015625 105.625976562 c 0
 133.91015625 86.1865234375 136.404296875 66.767578125 141.514648438 48.0107421875 c 0
 146.375 30.1689453125 152.58984375 15.9677734375 161.934570312 0.0107421875 c 9
 163 0 l 17
EndSplineSet
Validated: 524325
Layer: 2
SplineSet
162.934570312 -2.9892578125 m 21
 153.58984375 12.9677734375 146.375 30.1689453125 141.514648438 48.0107421875 c 4
 136.404296875 66.767578125 133.91015625 86.1865234375 133.91015625 105.625976562 c 4
 133.91015625 147.237304688 145.340820312 188.9453125 167.014648438 224.470703125 c 4
 185.099609375 254.11328125 211.140625 279.728515625 243.296875 292.834960938 c 4
 257.63671875 298.6796875 273.084960938 301.9296875 288.559570312 301.9296875 c 4
 290.435546875 301.9296875 292.310546875 301.881835938 294.185546875 301.78515625 c 4
 311.524414062 300.890625 328.666992188 295.756835938 343.474609375 286.690429688 c 4
 361.526367188 275.637695312 375.884765625 258.763671875 384.225585938 239.309570312 c 4
 390.3046875 225.129882812 393.211914062 209.696289062 393.211914062 194.251953125 c 4
 393.211914062 188.506835938 392.809570312 182.759765625 392.018554688 177.075195312 c 4
 389.102539062 156.110351562 381.053710938 136.021484375 369.807617188 118.088867188 c 4
 358.5625 100.155273438 344.185546875 84.2958984375 328.174804688 70.4501953125 c 4
 286.3515625 34.28515625 234.673828125 8.94140625 180.274414062 -0.94921875 c 4
 169.0546875 -2.9892578125 170.47265625 -2.4970703125 158.854492188 -1.9697265625 c 4
 136.4140625 -0.94921875 134.391601562 20.46484375 170.07421875 8.23046875 c 4
 176.176757812 6.138671875 196.594726562 -2.9892578125 226.174804688 -2.9892578125 c 4
 306.944335938 -2.9892578125 402.634765625 99.0107421875 402.634765625 99.0107421875 c 1037
EndSplineSet
EndChar

StartChar: C
Encoding: 67 67 18
Width: 500
VWidth: 0
Flags: HW
LayerCount: 4
Fore
SplineSet
202 68 m 1
 209 96 239 118 258 124 c 0
 275.992157982 129.6817341 306.872357536 127.546070774 321 104 c 0
 333 84 324.296875 53.7744140625 311 37 c 0
 279.498046875 -2.7392578125 211.425794852 -18.8702673899 191 34 c 0
 183.264651746 54.0209013626 183.251384337 74.3206241926 187.767392538 94.5185600517 c 1
 151.236990541 61.5711391146 109.991375313 28.2944797012 73 0 c 1
 69.150390625 -0.099609375 l 1
 107.957886133 30.3807087536 151.316673209 65.3160193385 188.881482141 99.1503794263 c 1
 194.700745531 121.77697024 205.907072261 144.239007709 218 166 c 0
 239.072817124 203.920131572 274.385742188 247.3984375 322 290 c 0
 341 307 351 302 339 278 c 0
 316.083131611 232.166263222 284.684570312 195.041992188 248 154 c 0
 232.599551987 136.77027476 213.926660125 118.388197944 193.596746246 99.8103697787 c 1
 187.807037247 80.0237639472 186.550867222 59.2109660642 193.91015625 36.2197265625 c 0
 210.940540737 -16.9833743137 277.011637651 -1.26077663635 308 37 c 0
 321.203057405 53.3015787865 330.759765625 82.3994140625 319 102 c 0
 305.155273438 125.075195312 274.129882812 125.299804688 258.450195312 120.5 c 0
 235.630578066 113.514547909 210.830078125 91.5 204 68 c 1
 202 68 l 1
195.177874697 104.861433846 m 1
 214.117654592 122.164947436 231.375410285 139.095463106 245.549804688 154.900390625 c 0
 281.62109375 195.12109375 314.121575843 236.065755626 335.849609375 278.33984375 c 0
 346.26171875 298.59765625 342.809570312 304.759765625 324.190429688 288.099609375 c 0
 277.528320312 246.350585938 246.330917396 202.499601204 225.25 165.580078125 c 0
 213.76556458 145.467107206 202.114268636 125.686902482 195.177874697 104.861433846 c 1
EndSplineSet
Validated: 524321
Layer: 3
SplineSet
202 68 m 4
 209 96 239 118 258 124 c 4
 275.992157982 129.6817341 306.872357536 127.546070774 321 104 c 4
 333 84 324.296875 53.7744140625 311 37 c 4
 279.498046875 -2.7392578125 211.425794852 -18.8702673899 191 34 c 4
 174 78 194.296875 123.346679688 218 166 c 4
 239.072817124 203.920131572 274.385742188 247.3984375 322 290 c 4
 341 307 351 302 339 278 c 4
 316.083131611 232.166263222 284.684570312 195.041992188 248 154 c 4
 203.868021257 104.6259904 132.86328125 45.7890625 73 0 c 4
 69.150390625 -0.099609375 l 4
 130.076171875 47.7529296875 202.21970011 106.585863535 245.549804688 154.900390625 c 4
 281.62109375 195.12109375 314.121575843 236.065755626 335.849609375 278.33984375 c 4
 346.26171875 298.59765625 342.809570312 304.759765625 324.190429688 288.099609375 c 4
 277.528320312 246.350585938 246.330917396 202.499601204 225.25 165.580078125 c 4
 202.021484375 124.899414062 178.110351562 85.580078125 193.91015625 36.2197265625 c 4
 210.940540737 -16.9833743137 277.011637651 -1.26077663635 308 37 c 4
 321.203057405 53.3015787865 330.759765625 82.3994140625 319 102 c 4
 305.155273438 125.075195312 274.129882812 125.299804688 258.450195312 120.5 c 4
 235.630578066 113.514547909 210.830078125 91.5 204 68 c 4
 202 68 l 4
EndSplineSet
EndChar

StartChar: D
Encoding: 68 68 19
Width: 500
VWidth: 0
Flags: HW
LayerCount: 4
Fore
SplineSet
332 32 m 0
 299 4 284.108398438 -4.0087890625 260 -11 c 0
 160 -40 107.452867298 10.953300095 100.049804688 94.8603515625 c 0
 95.37890625 147.80078125 121.250812201 206.80170299 157.830078125 243.780273438 c 0
 254 341 356.062115999 299.956084021 363.390723 205.000002582 c 0
 369.112228202 130.866990147 332.731699051 62.7065888771 293.25 32.0400390625 c 0
 249.975504215 -1.57248300683 199 -7 159.999992637 7.93697444735 c 0
 156.444411905 9.29875928122 153.187680436 10.3972791747 150.190429688 10.5 c 0
 122.75 11.4404296875 130.90234375 -0.494140625 144.190429688 0.740234375 c 0
 201.463833015 6.06055346121 237.458984375 75.06640625 276.450195312 117.400390625 c 0
 310.75 154.639648438 352.990234375 189.940429688 403.950195312 199.740234375 c 1
 407 200 l 1
 355 190 317 155 282 117 c 0
 242.212890625 73.802734375 209 9 151 0 c 0
 123.155273438 -4.3203125 122.999954521 14.9995755032 151 12 c 0
 153.751632492 11.7052244282 156.773952401 10.7682186734 159.999998319 9.48713634453 c 0
 199 -6 246.774015316 0.371230718826 290 32 c 0
 330.205988401 61.4190159031 365.445215754 131.430329242 360.315662677 203.999997911 c 0
 352.744807228 311.107666579 237 328 162 242 c 0
 127.115214936 201.998779794 101.233398438 148.021484375 106 94 c 0
 113.534179688 8.6103515625 162 -38 260 -9 c 0
 281.302682258 -2.69614504609 294 3 330 32 c 0
 332 32 l 0
EndSplineSet
Validated: 524325
Layer: 3
SplineSet
332 32 m 4
 299 4 284.108398438 -4.0087890625 260 -11 c 4
 160 -40 107.452867298 10.953300095 100.049804688 94.8603515625 c 4
 95.37890625 147.80078125 121.250812201 206.80170299 157.830078125 243.780273438 c 4
 254 341 356.062115999 299.956084021 363.390723 205.000002582 c 4
 369.112228202 130.866990147 332.731699051 62.7065888771 293.25 32.0400390625 c 4
 249.975504215 -1.57248300683 199 -7 159.999992637 7.93697444735 c 4
 156.444411905 9.29875928122 153.187680436 10.3972791747 150.190429688 10.5 c 4
 122.75 11.4404296875 130.90234375 -0.494140625 144.190429688 0.740234375 c 4
 201.463833015 6.06055346121 237.458984375 75.06640625 276.450195312 117.400390625 c 4
 310.75 154.639648438 352.990234375 189.940429688 403.950195312 199.740234375 c 5
 407 200 l 5
 355 190 317 155 282 117 c 4
 242.212890625 73.802734375 209 9 151 0 c 4
 123.155273438 -4.3203125 122.999954521 14.9995755032 151 12 c 4
 153.751632492 11.7052244282 156.773952401 10.7682186734 159.999998319 9.48713634453 c 4
 199 -6 246.774015316 0.371230718826 290 32 c 4
 330.205988401 61.4190159031 365.445215754 131.430329242 360.315662677 203.999997911 c 4
 352.744807228 311.107666579 237 328 162 242 c 4
 127.115214936 201.998779794 101.233398438 148.021484375 106 94 c 4
 113.534179688 8.6103515625 162 -38 260 -9 c 4
 281.302682258 -2.69614504609 294 3 330 32 c 4
 332 32 l 4
EndSplineSet
EndChar

StartChar: E
Encoding: 69 69 20
Width: 500
VWidth: 0
Flags: HW
LayerCount: 4
Fore
SplineSet
326 200 m 1
 308 200 292.157226562 194.771484375 285 190 c 0
 276 184 269.236704455 175.966841412 268 168 c 0
 266.074463112 155.595704895 278.048079114 153.033815311 286 158 c 0
 290.897460938 161.05859375 296.287462238 166.779391103 298.986948776 172.999996359 c 0
 309.65017064 197.571963304 283.39636234 205.663064002 260 197 c 0
 237.163608514 188.54427863 225 168 223 152 c 0
 220.147460938 129.177734375 233.846679688 112.435546875 251 106 c 0
 278.006282926 95.8678391982 281.861328125 107.857421875 259 105 c 0
 251 104 219 100 194 83 c 0
 167.37109375 64.892578125 143 31 138 -5 c 0
 125.606445312 -94.232421875 210.71959931 -128.702991964 270 -72 c 0
 300.172570908 -43.1392800011 313.65227162 -1.75690319755 310.571547698 31.9999987055 c 0
 305.387266746 88.8065376734 250.574322038 104.865245066 203.00000113 74.0041968755 c 0
 168.531610781 51.6448518486 141.707406545 -4.83666983906 167 -61 c 1
 168 -61 l 1
 144.176984792 -5.87956096814 170.880584233 51.3843322833 203.999998857 72.0477896037 c 0
 249.811948854 100.630217291 303.2109375 85.287109375 308.216796875 31 c 0
 311.2109375 -1.4716796875 297.103515625 -43.4697265625 268.01953125 -71.2900390625 c 0
 209.924804688 -126.859375 131.853515625 -91.447265625 144 -4 c 0
 148.900390625 31.2802734375 169.903320312 64.25390625 196 82 c 0
 220.5 98.66015625 251.246467705 102.48168122 259 104 c 4
 278.404296875 107.799804688 278.575805181 96.8239941871 251 107 c 0
 235.58944296 112.686793803 221.803179744 128.687564453 225 151 c 0
 226.959960938 164.6796875 234.050016621 186.046732919 260 196 c 0
 281.912882311 204.404813482 308.099132225 197.857868398 298.38859462 174.000001282 c 0
 295.715770209 167.433125974 290.298922281 161.686826426 286 159 c 0
 278 154 267.113101184 155.904809472 269 168 c 0
 270.242713711 175.965906266 276.179837738 183.119891825 285 189 c 0
 292.013671875 193.67578125 308.360351562 199 326 199 c 1
 326 200 l 1
EndSplineSet
Validated: 524325
EndChar

StartChar: I
Encoding: 73 73 21
Width: 500
VWidth: 0
Flags: HW
LayerCount: 4
Fore
SplineSet
180 0 m 1
 177.422302162 81.4552516664 192.089633147 142.983437645 213.80603717 188.000001348 c 0
 234.213274845 230.302756161 263.011183535 255.126811985 285.241210938 274 c 0
 330 312 397.119140625 315.850585938 360 233 c 0
 332.681828443 172.025154433 283.140811274 114.384916563 235 68 c 4
 205.43314001 39.5115658137 158.027058953 2.25393449069 109 0 c 0
 70.2578125 -1.78125 39.7300079218 22.2805404958 26 49 c 0
 16.2396906084 67.9941763341 13.9732949222 91.2479705969 22.2564304748 111.999998939 c 0
 35.7462149633 145.796426421 74.3454303909 165.040981768 116.999998245 156.577099905 c 0
 151.399588228 149.751240908 185.609375 132.463867188 204 107 c 1
 203 106 l 1
 184.307617188 131.711914062 148.200893473 147.914931512 117 154 c 0
 73.5258680938 162.47870175 37.7552897273 141.941211598 25 112 c 0
 15.7273692223 90.2338303463 19.1079813082 67.7097344171 28.1958169315 50.0000009833 c 0
 42.0596282724 22.9831827438 71.025390625 0.8623046875 108 4.0625 c 0
 159.564756713 8.52393320284 202.107955897 46.1002473154 232.134529148 74 c 4
 280.227821738 118.686783198 331.721174658 171.717298117 358 235 c 0
 395.186523438 324.549804688 316.7554327 296.253036398 287.2421875 271 c 0
 265.179516013 252.122054104 238.974609375 229.334960938 217.383789062 186 c 0
 195.27734375 141.62890625 180.482288466 79.9328074351 182 0 c 1
 180 0 l 1
EndSplineSet
Validated: 524325
EndChar

StartChar: J
Encoding: 74 74 22
Width: 500
VWidth: 0
Flags: HW
LayerCount: 4
Fore
SplineSet
255 0 m 1
 244.817382812 54.68359375 236.499372301 167.767350915 282 246 c 0
 335.545226248 338.064332013 401.171875 284.1015625 345.564453125 192 c 0
 331.391601562 168.526367188 264.708066034 61.4155782316 208.886123532 -20.9999978936 c 0
 178.332479328 -66.1094311557 157.125976562 -92.4599609375 135 -116.541992188 c 0
 113.967773438 -139.431640625 85.654296875 -168.727539062 67 -181.594726562 c 0
 26.995201221 -209.188864805 22.6950238482 -198.364082812 48 -153 c 0
 95.2236527802 -68.3424337342 183 4 370 96 c 0
 371 100 l 0
 179 5 90.5956857484 -67.7744044493 44 -152 c 0
 14.1699334588 -205.92033789 32.6553780142 -209.790858102 70.9999985419 -184.661032124 c 0
 101 -165 121.978515625 -145.124023438 143 -122 c 0
 163 -100 186.047698322 -64.0019647348 213.946054795 -22.000002204 c 0
 268.822398789 60.6182748453 334.638576533 164.332784605 349 188 c 0
 407.549090707 284.487228035 338.498835703 350.337596837 279 248 c 0
 232.583007812 168.163085938 242.609375 55.7998046875 253 0 c 1
 255 0 l 1
EndSplineSet
Validated: 524325
EndChar

StartChar: U
Encoding: 85 85 23
Width: 500
VWidth: 0
Flags: H
LayerCount: 4
Fore
SplineSet
394 200 m 1
 362.231445312 130.346679688 345.608398438 92.130859375 338.302734375 68 c 0
 311.58984375 -20.2314453125 384 -8 452 47.0087890625 c 0
 468.895507812 60.6767578125 484.108398438 78.8115234375 500 100 c 1
 503 100 l 1
 487.387695312 77.6962890625 472.248046875 60.103515625 456 46.6494140625 c 0
 390 -8 304.110351562 -29.265625 335.569335938 70 c 0
 343.576171875 95.265625 360.34375 134.630859375 390 200 c 1
 394 200 l 1
165 0 m 1
 133 42 119.915039062 74.779296875 114.08984375 121.41015625 c 0
 108.430664062 166.711914062 121.861328125 243.015625 177.889648438 280.169921875 c 0
 240.169921875 321.469726562 293.135742188 293.846679688 290 228 c 0
 289 207 281.540039062 160.139648438 259 118 c 0
 249.538085938 100.309570312 229.473632812 70.763671875 222.283203125 52 c 0
 199.17578125 -8.3037109375 245 -8 284 27 c 4
 325.046445495 63.8365536492 354.754882812 126.5546875 391 200 c 1
 395 200 l 1
 360.106445312 127.567382812 327.466715413 61.4889701651 287 25 c 4
 246.62017961 -11.4106166379 194.946289062 -11.3544921875 218.236328125 53 c 0
 224.93359375 71.505859375 242.916015625 103.016601562 252 120 c 0
 275 163 286.458007812 206.90234375 287 226 c 0
 289.041992188 297.897460938 234.142578125 313.788085938 178 276 c 0
 126 241 111.07421875 167.415039062 117 121 c 0
 123.706054688 68.4736328125 136 45 168 0 c 1
 165 0 l 1
EndSplineSet
EndChar

StartChar: Y
Encoding: 89 89 24
Width: 500
VWidth: 0
Flags: HW
LayerCount: 4
Fore
SplineSet
424 100 m 5
 331 40 256.411132812 -23.4775390625 190.147460938 -98 c 4
 79 -223 104 -233 203.391601562 -112 c 4
 277.756835938 -21.4677734375 335 70 391 200 c 13
 394 200 l 21
 339 70 282.623046875 -20.068359375 206.901367188 -112 c 4
 99 -243 77.2509765625 -220.943359375 188.045898438 -95 c 4
 252.912109375 -21.265625 334 44 420 100 c 13
 424 100 l 5
165 0 m 1
 133 42 119.915039062 74.779296875 114.08984375 121.41015625 c 0
 108.430664062 166.711914062 121.861328125 243.015625 177.889648438 280.169921875 c 0
 240.169921875 321.469726562 293.135742188 293.846679688 290 228 c 0
 289 207 281.540039062 160.139648438 259 118 c 0
 249.538085938 100.309570312 229.473632812 70.763671875 222.283203125 52 c 0
 199.17578125 -8.3037109375 245 -8 284 27 c 0
 325.046445495 63.8365536492 354.754882812 126.5546875 391 200 c 1
 395 200 l 1
 360.106445312 127.567382812 327.466715413 61.4889701651 287 25 c 0
 246.62017961 -11.4106166379 194.946289062 -11.3544921875 218.236328125 53 c 0
 224.93359375 71.505859375 242.916015625 103.016601562 252 120 c 0
 275 163 286.458007812 206.90234375 287 226 c 0
 289.041992188 297.897460938 234.142578125 313.788085938 178 276 c 0
 126 241 111.07421875 167.415039062 117 121 c 0
 123.706054688 68.4736328125 136 45 168 0 c 1
 165 0 l 1
EndSplineSet
EndChar

StartChar: V
Encoding: 86 86 25
Width: 500
VWidth: 0
Flags: HW
LayerCount: 4
Fore
SplineSet
165 0 m 1
 133 42 119.915039062 74.779296875 114.08984375 121.41015625 c 0
 108.430664062 166.711914062 121.861328125 243.015625 177.889648438 280.169921875 c 0
 240.169921875 321.469726562 293.135742188 293.846679688 290 228 c 0
 289 207 281.540039062 160.139648438 259 118 c 0
 249.538085938 100.309570312 229.473632812 70.763671875 222.283203125 52 c 0
 199.17578125 -8.3037109375 245 -8 284 27 c 0
 309.502783954 49.8871138049 341.467773438 108.765625 378 148 c 4
 400.265625 171.913085938 416 184 452 200 c 5
 456 200 l 5
 417 183 407.018554688 174.1484375 382 148 c 4
 346.552734375 110.952148438 310.723171922 46.3912620204 287 25 c 0
 246.62017961 -11.4106166379 194.946289062 -11.3544921875 218.236328125 53 c 0
 224.93359375 71.505859375 242.916015625 103.016601562 252 120 c 0
 275 163 286.458007812 206.90234375 287 226 c 0
 289.041992188 297.897460938 234.142578125 313.788085938 178 276 c 0
 126 241 111.07421875 167.415039062 117 121 c 0
 123.706054688 68.4736328125 136 45 168 0 c 1
 165 0 l 1
EndSplineSet
EndChar
